<?xml version="1.0" encoding="utf-8"?>
<!-- Generator: Adobe Illustrator 18.1.0, SVG Export Plug-In . SVG Version: 6.00 Build 0)  -->
<!DOCTYPE svg PUBLIC "-//W3C//DTD SVG 1.1//EN" "http://www.w3.org/Graphics/SVG/1.1/DTD/svg11.dtd">
<svg version="1.1" id="Layer_1" xmlns="http://www.w3.org/2000/svg" xmlns:xlink="http://www.w3.org/1999/xlink" x="0px" y="0px"
	 viewBox="0 0 243.4 64.8" enable-background="new 0 0 243.4 64.8" xml:space="preserve">
<rect x="-376.2" y="-802.3" display="none" stroke="#000000" stroke-miterlimit="10" width="1000" height="1000"/>
<g>
	<g>
		<path fill="#FFFFFF" d="M134.2,56.4c-0.2,0-0.3-0.1-0.3-0.3V35.6c0-0.2,0.1-0.3,0.3-0.3h1.8c0.2,0,0.3,0.1,0.3,0.3v1.3h0
			c0.4-1.1,1.3-1.9,2.9-1.9s2.8,0.8,3.3,2.5c0.3,0.9,0.4,1.7,0.4,5.5s-0.1,4.6-0.4,5.5c-0.5,1.7-1.7,2.5-3.3,2.5s-2.5-0.8-2.9-1.9h0
			v7c0,0.2-0.1,0.3-0.3,0.3H134.2z M140.3,47.3c0.2-0.5,0.2-1,0.2-4.3c0-3.3-0.1-3.8-0.2-4.3c-0.3-0.9-0.9-1.3-1.9-1.3
			c-1,0-1.6,0.5-1.9,1.3c-0.2,0.5-0.2,1-0.2,4.3c0,3.4,0.1,3.8,0.2,4.3c0.3,0.8,0.9,1.3,1.9,1.3C139.4,48.6,140,48.2,140.3,47.3z"/>
		<path fill="#FFFFFF" d="M146.7,50.7c-0.2,0-0.3-0.1-0.3-0.3V35.6c0-0.2,0.1-0.3,0.3-0.3h1.8c0.2,0,0.3,0.1,0.3,0.3v1.4h0
			c0.5-1.2,1.5-2.1,3.1-2.1c0.2,0,0.5,0,0.6,0.1c0.2,0,0.3,0.2,0.2,0.4l-0.4,1.8c-0.1,0.2-0.2,0.3-0.4,0.3h-0.5
			c-1.5,0-2.6,1.1-2.6,3.3v9.5c0,0.2-0.1,0.3-0.3,0.3H146.7z"/>
		<path fill="#FFFFFF" d="M154.5,48.1c-0.2-0.7-0.4-1.5-0.4-5.1c0-3.6,0.1-4.4,0.4-5.1c0.6-1.8,2-2.9,4.2-2.9s3.5,1,4.1,2.9
			c0.2,0.7,0.4,1.5,0.4,5.5c0,0.2-0.1,0.3-0.3,0.3h-6c-0.1,0-0.2,0.1-0.2,0.2c0,2.5,0.1,3,0.2,3.4c0.3,0.9,0.9,1.3,1.8,1.3
			c1.1,0,1.7-0.5,2.1-1.7c0.1-0.2,0.2-0.3,0.4-0.3l1.7,0.4c0.2,0,0.3,0.2,0.2,0.4c-0.4,2.2-2.1,3.6-4.4,3.6
			C156.5,51,155.1,49.9,154.5,48.1z M160.7,41.5c0-2-0.1-2.5-0.2-2.9c-0.3-0.8-0.9-1.3-1.8-1.3c-0.9,0-1.6,0.5-1.8,1.3
			c-0.1,0.4-0.2,0.9-0.2,2.9c0,0.1,0.1,0.2,0.2,0.2h3.7C160.6,41.7,160.7,41.6,160.7,41.5z"/>
		<path fill="#FFFFFF" d="M165.6,47c0-0.2,0.1-0.4,0.3-0.4l1.6-0.3c0.2,0,0.4,0.1,0.4,0.3c0.2,1.6,1.1,2.2,2.2,2.2
			c1.3,0,2-0.7,2-2.2c0-1.2-0.4-1.9-1.8-2.4l-1.3-0.5c-2-0.8-3.2-2.1-3.2-4.3c0-2.5,1.6-4.3,4.2-4.3c2.5,0,3.9,1.6,4.1,3.4
			c0,0.2-0.1,0.4-0.2,0.4l-1.5,0.3c-0.2,0-0.3-0.1-0.4-0.3c-0.3-1.1-0.8-1.8-2-1.8c-1.2,0-1.8,0.8-1.8,2.1c0,0.9,0.4,1.7,1.8,2.2
			l1.3,0.5c2.4,0.9,3.1,2.3,3.1,4.6c0,2.7-1.6,4.5-4.4,4.5C167.4,51,165.8,49.5,165.6,47z"/>
		<path fill="#FFFFFF" d="M177.3,48.1c-0.2-0.7-0.4-1.5-0.4-5.1c0-3.6,0.1-4.4,0.4-5.1c0.6-1.8,2-2.9,4.2-2.9c2.1,0,3.5,1,4.1,2.9
			c0.2,0.7,0.4,1.5,0.4,5.5c0,0.2-0.1,0.3-0.3,0.3h-6c-0.1,0-0.2,0.1-0.2,0.2c0,2.5,0.1,3,0.2,3.4c0.3,0.9,0.9,1.3,1.8,1.3
			c1.1,0,1.7-0.5,2.1-1.7c0.1-0.2,0.2-0.3,0.4-0.3l1.7,0.4c0.2,0,0.3,0.2,0.2,0.4c-0.4,2.2-2.1,3.6-4.4,3.6
			C179.3,51,177.9,49.9,177.3,48.1z M183.5,41.5c0-2-0.1-2.5-0.2-2.9c-0.3-0.8-0.9-1.3-1.8-1.3c-0.9,0-1.6,0.5-1.8,1.3
			c-0.1,0.4-0.2,0.9-0.2,2.9c0,0.1,0.1,0.2,0.2,0.2h3.7C183.4,41.7,183.5,41.6,183.5,41.5z"/>
		<path fill="#FFFFFF" d="M196,50.7c-0.2,0-0.3-0.1-0.3-0.3V40.1c0-1.8-0.6-2.8-2-2.8c-1.3,0-2.1,0.9-2.1,2.8v10.2
			c0,0.2-0.1,0.3-0.3,0.3h-1.8c-0.2,0-0.3-0.1-0.3-0.3V35.6c0-0.2,0.1-0.3,0.3-0.3h1.8c0.2,0,0.3,0.1,0.3,0.3v1.2h0
			c0.5-1,1.4-1.8,2.9-1.8c2.4,0,3.6,1.5,3.6,4.7v10.6c0,0.2-0.1,0.3-0.3,0.3H196z"/>
		<path fill="#FFFFFF" d="M205.5,50.8c-2.3,0-3.4-1.1-3.4-3.7v-9.7c0-0.1-0.1-0.2-0.2-0.2H201c-0.2,0-0.3-0.1-0.3-0.3v-1.3
			c0-0.2,0.1-0.3,0.3-0.3h0.9c0.1,0,0.2-0.1,0.2-0.2v-4.3c0-0.2,0.1-0.3,0.3-0.3h1.8c0.2,0,0.3,0.1,0.3,0.3v4.3
			c0,0.1,0.1,0.2,0.2,0.2h1.5c0.2,0,0.3,0.1,0.3,0.3v1.3c0,0.2-0.1,0.3-0.3,0.3h-1.5c-0.1,0-0.2,0.1-0.2,0.2v9.7
			c0,0.9,0.4,1.3,1.3,1.3h0.4c0.2,0,0.3,0.1,0.3,0.3v1.7c0,0.2-0.1,0.3-0.3,0.3H205.5z"/>
		<path fill="#FFFFFF" d="M208.7,47c0-0.2,0.1-0.4,0.3-0.4l1.6-0.3c0.2,0,0.4,0.1,0.4,0.3c0.2,1.6,1.1,2.2,2.2,2.2
			c1.3,0,2-0.7,2-2.2c0-1.2-0.4-1.9-1.8-2.4l-1.3-0.5c-2-0.8-3.2-2.1-3.2-4.3c0-2.5,1.6-4.3,4.2-4.3c2.5,0,3.9,1.6,4.1,3.4
			c0,0.2-0.1,0.4-0.2,0.4l-1.5,0.3c-0.2,0-0.3-0.1-0.4-0.3c-0.3-1.1-0.8-1.8-2-1.8c-1.2,0-1.8,0.8-1.8,2.1c0,0.9,0.4,1.7,1.8,2.2
			l1.3,0.5c2.4,0.9,3.1,2.3,3.1,4.6c0,2.7-1.6,4.5-4.4,4.5C210.6,51,209,49.5,208.7,47z"/>
		<path fill="#FFFFFF" d="M220.4,38.3v-2.7c0-0.2,0.1-0.3,0.3-0.3h2.1c0.2,0,0.3,0.1,0.3,0.3v2.7c0,0.2-0.1,0.3-0.3,0.3h-2.1
			C220.5,38.6,220.4,38.5,220.4,38.3z M220.4,47.7c0-0.2,0.1-0.3,0.3-0.3h2.1c0.2,0,0.3,0.1,0.3,0.3v2.7c0,0.2-0.1,0.3-0.3,0.3h-2.1
			c-0.2,0-0.3-0.1-0.3-0.3V47.7z"/>
	</g>
</g>
<g>
	<polygon fill="#FFFFFF" points="28.9,11.5 23.8,11.5 23.8,16.7 20.3,20.3 23.8,23.9 23.8,29.1 28.9,29.1 32.5,32.7 36.1,29.1 
		38.5,29.1 38.5,38.5 36.1,38.5 36.1,49.6 50,56.9 123.7,56.9 123.7,33.4 117.1,11.5 36.1,11.5 32.5,7.9 	"/>
	<polygon points="115,40.9 105.7,26 112.4,20.2 115.1,20.2 115.1,14.1 99.7,14.1 99.7,20.2 103,20.2 94.4,27.8 94.4,20.2 96.9,20.2 
		96.9,14.1 82.3,14.1 82.3,20.2 84.8,20.2 84.8,32.7 90.9,32.7 90.9,47 96.9,47 96.9,40.9 94.4,40.9 94.4,35.8 97.8,32.9 
		102.8,40.9 99.7,40.9 99.7,47 117.7,47 117.7,40.9 	"/>
	<path d="M81.1,34.8v6h-6V20.3h2.4v-6.2H65.1c0.7,0.4,1.3,0.9,1.9,1.5c2,2.1,2.4,4.7,2.4,6.5c0,3.2-0.7,5.4-2.3,7.1
		c2.5,1.9,3.9,4.8,3.9,8.2c0,4.1-1.2,7-3.8,8.9c-0.3,0.2-0.6,0.4-0.9,0.6h22.6V34.8H81.1z"/>
	<path d="M62.8,29.4c3.5-1.4,4.5-3.3,4.5-7.3c0-5.1-3.7-8-11.3-8H41.4v2.6l3.6,3.6l-3.6,3.6v5.2h0v11.8h-2.7V47h17.6
		c8.9,0,12.6-2.9,12.6-9.6C68.9,32.9,66.1,30.4,62.8,29.4 M51,20.3h2.9c1.8,0,3.1,1.3,3.1,3.4c0,2.3-0.7,3.6-3.1,3.6H51V20.3z
		 M54.7,40.9H51v-8.2h3.6c2.5,0,3.9,1.7,3.9,4.1C58.5,39.4,56.7,40.9,54.7,40.9"/>
	<path d="M28.5,17.3c-0.4,1.6-0.8,3-1.1,4.3c-0.3,1.3-0.5,2.4-0.6,3.3c0,0.1,0,0.2,0,0.3c0,0.3-0.1,0.4-0.2,0.4
		c-0.1,0-0.3,0-0.4-0.1c-0.2-0.1-0.2-0.2-0.2-0.3c0-0.1,0-0.4,0.1-0.8c0.1-0.4,0.1-0.9,0.3-1.4c0.3-1.3,0.6-2.6,0.9-3.7
		c0.3-1.2,0.6-2.1,0.8-2.8c0.1-0.2,0.2-0.4,0.5-0.6c0.2-0.1,0.5-0.2,0.9-0.3c0.1,0,0.2,0,0.3,0c0.1,0,0.1,0.1,0.1,0.1
		c0,0,0,0.1,0,0.2c0,0.1-0.1,0.2-0.1,0.4c0,0.3-0.1,0.6-0.1,0.9c0,0.3,0,0.7,0,1.1c0.1,0.9,0.2,1.7,0.3,2.5c0.1,0.8,0.3,1.5,0.5,2.3
		c0.3-1.7,0.7-3.7,1.3-6l0-0.2c0-0.2,0.1-0.4,0.2-0.6c0.3-1,0.5-1.5,0.9-1.5c0.1,0,0.2,0,0.2,0c0.1,0,0.1,0.1,0.1,0.1
		c0,0,0,0.1,0,0.2c0,0.1-0.1,0.2-0.1,0.3c-0.4,1.6-0.8,3.1-1.1,4.5c-0.3,1.3-0.5,2.5-0.6,3.4c0,0,0,0.1,0,0.2
		c-0.1,0.6-0.3,0.9-0.7,1c-0.1,0-0.2,0-0.4-0.2c-0.2-0.1-0.3-0.2-0.4-0.4c-0.1-0.2-0.3-0.8-0.6-1.9c-0.2-1.1-0.4-2.2-0.5-3.4
		c0-0.2,0-0.4,0-0.7C28.5,17.9,28.5,17.6,28.5,17.3"/>
	<path d="M32.9,22.7c0,0.1,0,0.3,0,0.4c0,0.1,0,0.3,0,0.4c0,0.3,0.1,0.5,0.2,0.7c0.1,0.1,0.2,0.2,0.4,0.2c0.3,0,0.6-0.2,1-0.6
		c0.4-0.4,0.7-0.9,0.9-1.4c0,0,0.1-0.1,0.1-0.2c0.1-0.2,0.2-0.3,0.2-0.3c0.1,0,0.1,0,0.2,0.1c0.1,0.1,0.1,0.1,0.1,0.2
		c0,0.1,0,0.3-0.1,0.5c-0.1,0.2-0.2,0.5-0.4,0.8c-0.3,0.5-0.7,0.9-1,1.1c-0.3,0.2-0.6,0.4-1,0.4c-0.4,0-0.7-0.1-0.9-0.3
		c-0.2-0.2-0.3-0.5-0.4-1c0-0.5,0-1.1,0.2-1.7c0.2-0.7,0.4-1.3,0.7-1.8c0.1-0.2,0.2-0.3,0.3-0.4c0.1-0.1,0.2-0.1,0.4-0.2
		c0.1,0,0.1,0,0.2,0c0.1,0,0.1,0.1,0.2,0.1c0.1,0,0.2,0,0.3,0.1c0.3,0.1,0.5,0.2,0.5,0.5c0,0.6-0.1,1.2-0.4,1.8
		c-0.3,0.6-0.7,0.9-1,0.9c-0.1,0-0.2,0-0.2,0C33,22.9,32.9,22.8,32.9,22.7 M33.4,22.4c0.2,0,0.3-0.2,0.4-0.6
		c0.1-0.4,0.2-0.8,0.2-1.1c0-0.1,0-0.1-0.1-0.2c0,0-0.1-0.1-0.1-0.1c-0.1,0-0.3,0.2-0.5,0.6c-0.2,0.4-0.3,0.7-0.2,0.9
		c0,0.1,0,0.3,0.1,0.3C33.2,22.4,33.3,22.4,33.4,22.4"/>
	<path d="M37.2,23.3c-0.1,0.5-0.3,0.8-0.5,1.1c-0.2,0.3-0.4,0.4-0.6,0.4c-0.2,0-0.4-0.1-0.6-0.3c-0.2-0.2-0.3-0.4-0.3-0.7
		c0-0.3,0-0.7,0.1-1.2c0.1-0.5,0.2-1,0.4-1.5c0.1-0.3,0.2-0.5,0.3-0.6c0.1-0.1,0.2-0.2,0.3-0.2c0.1,0,0.2,0,0.4,0.1
		c0.1,0.1,0.2,0.2,0.2,0.3c0,0.1-0.1,0.2-0.1,0.2c0,0.1-0.1,0.1-0.1,0.2c-0.2,0.5-0.3,1.1-0.4,1.6c-0.1,0.5-0.1,0.9-0.1,1.1
		c0,0.1,0,0.1,0,0.2c0,0,0,0.1,0.1,0.1c0.1,0,0.3-0.2,0.5-0.7c0.2-0.4,0.5-1.4,1-2.9c0,0,0.1-0.1,0.1-0.1c0,0,0.1,0,0.1,0
		c0.2,0,0.3,0,0.5,0.1c0.2,0.1,0.2,0.2,0.2,0.3c0,0,0,0.1,0,0.2c-0.3,0.7-0.4,1.5-0.4,2.3c0,0.1,0,0.2,0,0.2c0,0,0.1,0.1,0.1,0.1
		c0.2,0,0.4-0.4,0.6-1.1c0.2-0.7,0.4-1.6,0.6-2.6c0-0.1-0.1-0.1-0.1-0.2c-0.1-0.1-0.1-0.1-0.1-0.2c0-0.1,0-0.1,0.1-0.1
		c0.1,0,0.1-0.1,0.2-0.1c0.1,0,0.3,0,0.4,0.1c0.1,0.1,0.2,0.2,0.2,0.3c0,0.2,0,0.7-0.2,1.4c-0.1,0.7-0.3,1.3-0.5,1.8
		c-0.2,0.5-0.4,0.9-0.6,1.1c-0.2,0.2-0.4,0.4-0.6,0.4c0,0-0.1,0-0.2,0c-0.1,0-0.1,0-0.3-0.1c-0.2,0-0.3-0.1-0.4-0.3
		C37.3,23.8,37.2,23.6,37.2,23.3"/>
</g>
</svg>
