<?xml version="1.0" encoding="utf-8"?>
<!-- Generator: Adobe Illustrator 18.1.0, SVG Export Plug-In . SVG Version: 6.00 Build 0)  -->
<svg version="1.1" id="Layer_1" xmlns="http://www.w3.org/2000/svg" xmlns:xlink="http://www.w3.org/1999/xlink" x="0px" y="0px"
	 viewBox="0 0 172.4 319.7" enable-background="new 0 0 172.4 319.7" xml:space="preserve">
<g>
	<path fill="#FFFFFF" d="M155.6,252c-0.2-0.9-0.2-1.9-0.5-2.8c-0.5-1.5-1.3-2.9-1.9-4.4c-0.3-0.8-0.6-1.6-0.9-2.3
		c-0.4-1-0.9-2-1.3-3c-0.4-0.8-0.8-1.6-1.1-2.4c-0.7-1.8-1.4-3.5-1.8-5.4c-0.2-0.8-0.3-1.6-0.5-2.4c-0.1-0.5-0.3-1.1-0.3-1.6
		c0.1-1.1,0.1-2.2-0.5-3.3c-0.5-0.8-0.5-1.9-0.7-2.9c-0.1-0.5-0.1-1.1-0.2-1.6c-0.1-0.5-0.3-1-0.4-1.5c-0.1-1-0.1-1.9-0.3-2.9
		c-0.1-0.8-0.2-1.5-0.6-2.3c-0.3-0.6-0.4-1.4-0.5-2.1c-0.1-0.6-0.3-1.2-0.5-1.8c-0.3-0.9-0.7-1.8-0.4-2.7c0.3-1.2-0.1-2.4,0.1-3.7
		c0.1-0.5-0.1-1.1-0.2-1.7c0,0,0.1-0.1,0.1-0.1c0.5,0.2,0.1-0.2,0.2-0.3c0.1-0.1,0-0.3,0.1-0.5c0.2-0.7,0.3-1.4,0.5-2.1
		c0.1-0.3,0.1-0.6,0.1-0.9c0.2-1.8,0.4-3.5,0.6-5.3c0.1-1.2,0.3-2.4,0.4-3.6c0.1-1,0-2,0-3c0-0.6,0.1-1.1,0.1-1.7
		c0-0.3-0.1-0.6-0.1-0.8c-0.1-0.6-0.2-1.1-0.2-1.7c-0.1-0.7-0.1-1.3-0.2-2c-0.1-0.8-0.2-1.5-0.3-2.3c-0.1-0.5-0.1-0.9-0.2-1.4
		c-0.1-0.5-0.5-0.9-0.3-1.5c0-0.1,0-0.2,0-0.2c-0.1-0.4-0.3-0.7-0.3-1.1c-0.2-1-0.3-2.1-0.7-3.2c-0.5-1.1-1-2.3-1.2-3.5
		c-0.1-0.6-0.8-1.1-0.7-1.9c0.1-0.4-0.1-0.9-0.1-1.4c-0.6,0.1-0.3-0.6-0.6-1c0.3,0.2,0.5,0.3,0.7,0.4c0,0,0.1-0.1,0.1-0.1
		c-0.2-0.2-0.4-0.5-0.7-0.8c0.1-0.1,0.2-0.2,0.3-0.3c0.1,0.1,0.2,0.2,0.3,0.3c0.5-0.2-0.5-1,0.5-1c-0.4-0.4-0.7-0.7-1.1-0.9
		c-0.3-0.3-0.7-0.6-0.3-1c-0.2-0.2-0.4-0.4-0.5-0.4c0-0.3,0.1-0.6,0.1-0.9c-0.1-0.8-0.3-1.6-0.4-2.3c0-0.2-0.1-0.6,0-0.7
		c0.4-0.4,0.2-0.7,0.1-1.1c-0.1-0.4-0.3-0.7-0.3-1.1c0-0.4,0.1-0.7,0.1-1.1c0-0.4-0.1-0.8-0.1-1.2c0-0.3,0-0.6,0-0.9
		c0-0.6-0.1-1.2-0.1-1.8c0-0.4,0-0.9,0.1-1.3c0-0.6,0.1-1.3,0.1-1.9c0-0.2,0.1-0.4,0.2-0.7c0,0-0.1-0.1-0.1-0.2
		c-0.1-0.6-0.1-1.3-0.2-1.9c0-0.5,0.1-0.9,0-1.4c-0.2-0.5,0.1-1.2,0.1-1.8c0,0-0.2,0-0.4-0.1c0.1-0.3,0.2-0.7,0.3-1.1
		c0,0-0.2-0.2-0.2-0.3c0.1-0.2,0.2-0.3,0.3-0.6c-0.3,0.1-0.5,0.1-0.7,0.1c0.2-0.2,0.4-0.3,0.5-0.5c-0.1,0-0.1,0-0.2,0
		c-0.1-0.2-0.1-0.4-0.2-0.5c0-0.1,0.1-0.3,0.1-0.4c-0.1-0.5-0.2-1-0.2-1.5c-0.1-0.7,0-1.5-0.2-2.2c-0.2-0.8-0.5-1.6-0.7-2.4
		c-0.1-0.3-0.1-0.7-0.1-1.2c-0.2,0.1-0.3,0.2-0.5,0.3c0-0.1-0.2-0.3-0.1-0.3c0.1-0.2,0.3-0.3,0.5-0.4c-0.2-0.1-0.4-0.2-0.5-0.3
		c-0.1-0.1-0.1-0.2-0.1-0.3c0.1-0.3,0.1-0.6,0.2-0.8c-0.2-0.1-0.5-0.2-0.5-0.3c0-0.6-0.6-1.2,0.1-1.7c-0.2,0.1-0.4,0.2-0.7,0.3
		c-0.1-0.1-0.2-0.2-0.3-0.3c0.2-0.2,0.4-0.4,0.5-0.5c0.1,0.1,0.1,0.1,0.2,0.2c-0.3-0.3-0.5-0.6-0.9-0.9c0.1-0.1,0.3-0.1,0.4-0.2
		c-0.1-0.2-0.2-0.5-0.3-0.7c-0.1-0.2-0.1-0.4-0.1-0.6c-0.2-0.5-0.5-0.9-0.8-1.4c0.1-0.1,0.2-0.2,0.4-0.3c-0.3-0.1-0.5-0.2-0.6-0.3
		c0-1.1-0.1-1.2-0.7-1.5c0.5-0.4-0.1-0.6-0.2-0.9c-0.2-0.4-0.8-0.6-0.6-1.2c0.1-0.2-0.1-0.6-0.2-0.8c-0.4-0.5-0.8-1-1.2-1.6
		c-0.2-0.3-0.3-0.7-0.5-1.1c-0.1,0-0.2,0.1-0.4,0.1c-0.2-1.1-2.7-3.8-3.2-3.8c-0.8-1.3-1.7-2.3-2.9-3.1c0.2,0,0.3-0.1,0.4-0.1
		c-0.5-0.2-0.9-0.4-1.3-0.6c0.5-0.3-0.1-0.5-0.2-0.7c-0.2-0.2-0.5-0.6-0.7-0.2c-0.5-0.5-1.1-0.9-1.6-1.4c0,0,0.1-0.1,0.1-0.2
		c0,0-0.2-0.1-0.2-0.1c-0.6,0.5-0.6-0.1-0.8-0.4c-0.1-0.1-0.3-0.2-0.4-0.2c-0.4-0.1-0.9-0.2-1.3-0.4c0,0,0-0.1,0-0.1
		c0.2,0,0.4,0,0.6-0.1c-0.4-0.1-0.5-0.2-0.2-0.6c-0.4,0-0.6,0-1,0c0.1-0.1,0.1-0.2,0.1-0.3c0,0-0.1,0-0.1-0.1
		c-0.1,0.1-0.2,0.2-0.3,0.3c-0.4-0.3-0.7-0.6-1.2-1c-0.3-0.1-0.8-0.3-1.3-0.4c0-0.1,0-0.3,0-0.2c-1.1-0.3-2.1-0.7-3.1-0.9
		c-1-0.2-2.1-0.3-3-0.4c0-0.5,0-1,0.1-1.3c0.1-0.6,0.3-1.1,0.5-1.7c0.3-1.2,0.6-2.5,0.9-3.8c0.1-0.6,0.1-1.2,0.3-1.8
		c0.3-1.1,0.4-2.2,0.3-3.3c0-0.4,0-0.9-0.1-1.3c-0.1-0.5-0.2-1-0.4-1.4c-0.2-0.6-0.8-1.1-0.2-1.7c0,0,0-0.2,0-0.2
		c-0.5-0.6-0.8-1.3-1.4-1.9c-0.6-0.5-1.4-0.8-2-1.3c-0.6-0.7-1.3-1.2-2.1-1.6c-1-0.6-2.1-1.1-3.2-1.5c-0.8-0.4-1.7-0.7-2.6-1
		c-0.4-0.1-0.8-0.2-1.2-0.3c-1-0.3-1.9-0.7-2.9-1.1c-1.2-0.4-2.4-0.8-3.6-1.2c-0.9-0.3-1.9-0.5-2.8-0.7c-0.4-0.1-0.8-0.2-1.2-0.4
		c-0.9-0.3-1.8-0.8-2.7-1.1c-0.8-0.2-1.6-0.3-2.4-0.5c-1.4-0.4-2.1-0.1-2.8,1.1c0,0.1-0.2,0.1-0.2,0.2c-0.1,0.1-0.2,0.2-0.4,0.2
		c0,0-0.1-0.2-0.3-0.4c0,0.3-0.1,0.4-0.1,0.5c-0.6,0.1-1.1,0.2-1.6,0.2c-1.1-0.1-2.2-0.3-3.2-0.4c-1.6-0.1-3.2,0-4.8,0
		c-0.3,0-0.7,0-1,0.1c-1.2,0.1-2.5,0.3-3.7,0.5c-1.2,0.2-2.4,0.2-3.5,0.6c-1.8,0.5-3.5,1.2-5.3,1.8c-0.5,0.2-1,0.3-1.5,0.5
		c-0.5,0.2-1,0.5-1.5,0.8c-0.7,0.3-1.5,0.5-2.2,0.8c-0.2,0.1-0.3,0.2-0.5,0.3c-0.7,0.2-1.4,0.5-2,0.7c-0.1,0-0.1,0-0.2,0
		c-0.7-0.1-1.2,0.3-1.6,0.6c-0.3,0.2-0.5,0.4-0.8,0.5c-0.2-0.1-0.3-0.1-0.4-0.2c-0.3,0.2-0.5,0.4-0.7,0.5c-1.1,0.4-2.2,0.4-3.2,0.1
		c-1-0.3-1.7,0.3-2.5,0.5c-0.8,0.2-1.3,1-2.1,1.2c-0.1,0-0.4-0.1-0.4,0.2c-0.1,0-0.3,0-0.5-0.1c0,1.1-1,1.2-1.8,1.8
		c0.4,0,0.5-0.1,0.6-0.1c0,0.1,0,0.1,0.1,0.2c-0.3,0.1-0.8,0.2-1,0.4c-0.5,0.5-1.3,0.4-1.7,1c-0.4,0.5-1.1,0.8-1.6,1.3
		c-0.8,0.8-1.5,1.7-2.2,2.4c-1,1-2.1,1.8-3.1,2.8c-1,0.9-1.8,2-2.7,3c-0.5,0.5-1.2,0.8-1.7,1.2c-1.1,0.9-2.1,1.9-2.7,3.2
		c-0.3,0.7-0.6,1.3-0.4,2.1c0.1,0.3,0.1,0.7,0,1.1c-0.5,1.5-0.1,2.9,0.4,4.3c0.4,1.1,0.9,2.2,1.3,3.2c0.4,0.9,0.9,1.9,1.4,2.8
		c0.3,0.6,0.8,1.2,1.2,1.8c1.1,1.7,2.2,3.5,3.3,5.2c0.9,1.4,2,2.6,3,4c1,1.4,2,2.8,3.4,3.8c1,0.7,1.9,1.4,3.1,1.7
		c0-0.2-0.1-0.4-0.1-0.6c0.2,0,0.3,0.1,0.5,0.1c0.3-0.1,0.6-0.1,0.9-0.3c0.1-0.1,0.1-0.3,0.2-0.5c-0.2,0-0.4,0-0.6,0
		c0.1-0.3,0.2-0.5,0.4-0.8c-0.4-0.2-0.7-0.3-1.1-0.5c0.1-0.1,0.8,0.1,0.4-0.5c0.1,0,0.3,0,0.4-0.1c-0.5-0.3-0.6-0.6-0.3-0.9
		c0.2,0.2,0.4,0.4,0.6,0.6c0.1,0,0.1-0.1,0.2-0.1c0,0.2,0,0.4,0.1,0.7c0.2-0.4,0.3-0.6,0.4-0.9c0.3,0.4,0.5,0.7,0.7,1.1
		c0.1-0.3,0.2-0.5,0.3-0.7c0.2,0.1,0.4,0.1,0.5,0.2c0-0.1,0.1-0.2,0.1-0.3c-0.3-0.1-0.7-0.2-1.3-0.3c1.3,0.1,0.7-0.8,1-1.3
		c0,0.2,0.1,0.4,0.1,0.5c0.1,0,0.1,0,0.2,0c0-0.2,0-0.5-0.1-0.6c-0.5-0.5-0.6,0.4-1,0.4c-0.2-0.2-0.4-0.5-0.6-0.8
		c0,0,0.1-0.1,0.1-0.1c0.1,0.1,0.3,0.2,0.4,0.2c0.2,0,0.5,0,0.5-0.1c0.3-0.5,0-1-0.6-0.9c-0.5,0-0.9-0.2-1.2-0.7
		c0,0.2-0.1,0.4-0.1,0.5c-0.1-0.1-0.3-0.3-0.4-0.4c-0.1,0.3-0.2,0.4-0.3,0.6c-0.1,0-0.1-0.1-0.2-0.1c0.1-0.3,0.3-0.5,0.4-0.8
		c-0.1-0.2-0.2-0.4-0.3-0.5c-0.6,0.1-1,0.3-1.6,0.4c0.2-0.3,0.3-0.5,0.4-0.7c0,0-0.1,0-0.1-0.1c-0.2,0.1-0.3,0.2-0.5,0.3
		c-0.1-0.2-0.2-0.4-0.4-0.7c0.2-0.1,0.4-0.3,0.6-0.4c0-0.1-0.1-0.1-0.1-0.2c-0.3,0.1-0.5,0.2-0.6,0.2c-0.4-0.2-0.7-0.4-1.1-0.5
		c0.2-0.1,0.4-0.1,0.6-0.1c0-0.1,0-0.1,0-0.2c-0.3,0-0.6,0.1-0.9,0.1c0-0.1,0-0.1-0.1-0.2c0.3-0.1,0.7-0.2,1-0.3c0-0.5,0-1.2,0-1.8
		c0,0,0,0,0,0c0,0.3,0,0.6-0.1,0.9c-0.2,0-0.4-0.1-0.7-0.1c0.2-0.2,0.3-0.4,0.4-0.6c-0.1,0-0.3,0-0.5,0c0-0.1,0-0.3,0-0.4
		c-0.1,0-0.1-0.1-0.2-0.1c-0.1,0.2-0.2,0.4-0.2,0.6c-0.1-0.1-0.1-0.1-0.2-0.2c0.1-0.2,0.2-0.4,0.3-0.7c-0.3,0-0.5,0-0.8-0.1
		c0.4-0.7,0.4-0.7-1-1.3c-0.1,0.2-0.2,0.4-0.3,0.7c-0.5-0.4-1-0.7-1.5-1c0-0.1,0.1-0.3,0.1-0.5c-0.2,0-0.3,0.1-0.5,0.1
		c0.2-0.2,0.2-0.4,0.4-0.6c-0.6-0.1-1.1-0.2-1.3-0.8c0-0.1-0.3,0-0.5,0c0.2-0.5,0.3-0.9-0.1-1.3c0,0-0.1-0.1-0.1-0.2
		c0.4-0.8-0.4-1.1-0.7-1.6c-0.2-0.3-0.3-0.5,0-0.8c0.1-0.1,0.1-0.3,0.2-0.4c0,0-0.1-0.1-0.1-0.1c-0.1,0.1-0.2,0.1-0.3,0.2
		c-0.2-0.8-0.5-1.5-0.7-2.2c-0.1-0.2,0-0.4,0.1-0.7c0-0.1,0.2-0.1,0.2-0.2c0-0.5,0-1,0.5-1.1c0.1,0,0.4,0.6,0.5,0.8
		c0.2,0,0.5-0.1,0.5,0c0.2,0.5,0.4,1,0.5,1.6c0.1,0.5,0.1,1,0.2,1.5c-0.1-0.1-0.3-0.1-0.5-0.2c0.3,0.6,0.5,1.2,0.8,1.8
		c0.1-0.2,0.1-0.4,0.2-0.7c0.3,0.4,0.6,0.8,0.8,1.2c0,0,0.1,0,0.2,0c0.6-0.2,1.3-0.3,2-0.5c-0.3-0.1-0.4-0.1-0.5-0.2
		c0,0,0-0.1,0-0.1c0.3,0,0.7,0,1,0c0.1-0.3,0.1-0.6,0.2-1c0.2,0.3,0.3,0.4,0.4,0.5c0,0,0.1-0.1,0.1-0.1c-0.1-0.1-0.2-0.2-0.3-0.4
		c-0.1-0.1-0.1-0.4,0-0.4c0.4-0.2,0.4-0.2,0.2-0.5c-0.3-0.9-0.6-1.8,0-2.7c0.1-0.1,0-0.3-0.1-0.5c0.3,0,0.6,0,0.9,0
		c-0.2-0.2-0.4-0.3-0.6-0.5c0.2,0,0.5,0,0.7-0.1c0.2-0.1,0.3-0.3,0.5-0.4c0-0.2,0-0.5,0.1-0.8c-0.4-0.2-0.8-0.4-1.2-0.6
		c0.6-0.1,1.1-0.9,0.8-1.4c-0.4-0.6-0.1-0.8,0.4-1.1c-0.3-0.4,0-1.1-0.5-1.4c0,0,0-0.2,0-0.3c0-0.2,0-0.4-0.1-0.6
		c0-0.2-0.1-0.4,0-0.5c0.2-0.5,0.5-0.9,0.3-1.5c-0.1-0.2,0-0.5,0-0.7c-0.1,0-0.3,0.1-0.5,0.1c0-0.1,0-0.2,0-0.2c0.3,0,0.6-0.1,1-0.1
		c-0.3-0.2-0.5-0.3-0.8-0.5c1.3-0.1,0.2-1,0.6-1.3c0.3-0.2,0.4-0.2,0.6-0.3c-0.1-0.1-0.3-0.1-0.5-0.3c0.3-0.1,0.4-0.1,0.6-0.2
		c0-0.2-0.1-0.4-0.1-0.6c-0.2,0-0.5,0.1-0.6,0.1c0.2-0.3,0.5-0.6,0.5-1c0.1-0.4,0-0.8,0.4-1.1c0.2-0.2,0.3-0.7,0.4-1
		c0.1-0.5,0.1-1,0.1-1.5c0.1-0.8,0.4-0.9,1-1c0-0.2,0-0.3-0.1-0.4c0.9,0.1,1.6-0.1,2.3-0.6c0.6-0.4,0.7-1.3,1.6-1.4
		c0.2,0,0.4-0.2,0.6-0.2c0.1,0,0.2,0.1,0.5,0.3c0.5-0.1,1,0.2,1,0.7c0.3-0.1,0.6-0.4,1-0.4c0.2,0,0.4,0.5,0.5,0.8
		c0,0.2-0.2,0.4-0.3,0.7c-0.3-0.3-0.5-0.6-0.8-1c-0.2,0.4-0.4,0.8-0.6,1.2c-0.2,0.3-0.4,0.6-0.7,0.9c-0.8,1-0.4,2.4-1.3,3.4
		c0,0,0,0.2,0,0.2c0.2,1,0,1.9-0.3,2.8c-0.3,0.8-0.5,1.7-0.4,2.6c0,0.3,0,0.7-0.1,1c-0.1,1.2-0.3,2.4-0.3,3.6c0,1.5,0.3,3,0.4,4.6
		c0.1,0.6,0.3,1.1,0.4,1.7c0.4-0.9,0.6-1.9,0.7-2.8c0.1-1,0.4-1.9,0.8-2.9c-0.1-0.1-0.2-0.3-0.4-0.4c0.4-0.4,0.7-0.8,0.2-1.2
		c0.5-0.7,0.1-1.4,0.2-2.1c0,0.1,0.1,0.3,0.1,0.4c0-0.5,0.5-0.9,0-1.4c-0.2-0.2-0.3-0.7-0.2-0.7c0.6-0.4,0.3-0.8,0.1-1.2
		c0.2-0.1,0.4-0.2,0.4-0.2c0-0.3-0.1-0.6-0.1-0.8c0.1-0.6,0.1-1.2,0.2-1.8c0-0.2,0.2-0.5,0.3-0.6c0.4-0.2,0.5-0.3,0.5-0.8
		c0-0.1-0.1-0.3,0.1-0.5c0.7-0.6,0.5-1.5,0.5-2.3c0-0.5-0.6-1,0.2-1.4c0.2,0.3,0.6,0.5,0.6,0.8c-0.1,1,0.8,2,0.2,3.1
		c-0.2,0.5,0.1,1.2,0.1,1.7c0.4,0,0.7,0,1,0.1c0-0.3-0.3-0.6,0.3-0.6c0.1,0,0.8,0.1,0.8-0.5c0-0.2-0.2-0.4-0.3-0.7
		c0.2,0,0.4,0,0.7,0c-0.3,0.5,0.8,1.1-0.3,1.5c0.2,0.1,0.4,0.2,0.6,0.3c0.1-1.3,0.9-0.8,1.7-0.8c-0.2,0.3-0.3,0.4-0.4,0.6
		c0.1,0,0.1,0,0.2,0c0,0.2,0,0.6,0.1,0.6c0.9,0.3-0.2,0.4-0.1,0.6c0.1,0.1,0.2,0.2,0.5,0.3c-0.3,0-0.4,0.1-0.7,0.1
		c0.3,0.1,0.4,0.2,0.5,0.2c-0.1,0.1-0.2,0.2-0.2,0.3c0,0.3,0.1,0.5,0.2,0.8c0.1,0.3,0.1,0.7,0.3,1c0.1,0.2,0.3,0.4,0.4,0.6
		c0,0-0.1,0.1-0.1,0.1c-0.1-0.1-0.3-0.3-0.4-0.4c-0.2,0.2-0.3,0.4-0.4,0.6c-0.3,0.4-0.5,0.9-0.8,1.3c-0.2,0.3-0.5,0.4-0.8,0.8
		c0.2,0.2,0.5,0.5,0.8,0.9c0.1,0,0.1-0.1,0.2-0.1c0-0.2-0.1-0.4-0.1-0.5c0.4,0.2,0.7,0.5,1.1,0.7c-0.3,0.1-0.6,0.2-0.9,0.4
		c0,0.2,0.1,0.4,0.1,0.6c-0.1,0-0.1,0-0.2,0c0.1,0.1,0.3,0.2,0.4,0.2c-0.2,0.1-0.3,0.2-0.4,0.2c0,0,0,0.1,0,0.1
		c0.2,0,0.3-0.1,0.5-0.1c0,0.4,0.2,0.8,0.6,0.5c0.4-0.4,0.6-0.3,1-0.1c0-1-0.7-1.7-1-2.6c0.7,0.1,1.1-0.2,1.4-0.6
		c0,0.2,0,0.3,0.1,0.5c0.1-0.2,0.2-0.3,0.3-0.5c0.1,0.2,0.2,0.3,0.3,0.4c0.1,0.1,0.2,0.2,0.3,0.2c0.1-0.2,0.1-0.3,0.2-0.4
		c2,1.3,3.3,3.2,4.1,5.3c0.1,0,0.2-0.1,0.4-0.2c0.2,0.8,0.6,1.4,1.3,1.6c0,0.1-0.1,0.2-0.2,0.3c0,0,0,0,0.1,0.1
		c0.1-0.1,0.2-0.2,0.5-0.4c0.1,0.9,0.1,1.6,0.2,2.3c-0.2,0-0.3,0-0.3,0c-0.1,0.5-0.1,1-0.1,1.3c-0.3,0.5-0.6,0.8-0.8,1.1
		c0.3,0.2,0.5,0.5,0.8,0.7c0.3,0.2,0.5,0.8,1,0.2c0,0.4-0.1,0.6-0.2,0.9c-0.2,0.4-0.6,0.8-0.5,1.1c0.1,0.8,0.1,1.6,0,2.5
		c0,0.5,0.1,1.1,0.2,1.6c-0.2,0.1-0.4,0.1-0.5,0.2c0,0.3,0.2,0.7,0.1,0.8c-0.2,0.2-0.5,0.4-0.7,0.5c-0.1,0.2-0.1,0.6-0.2,0.6
		c-0.3,0.1-0.2,0.4-0.3,0.6c0,0.2-0.1,0.4-0.1,0.6c0,0-0.1,0-0.1,0c0-0.2,0-0.4-0.1-0.6c-0.2,0.3-0.3,0.7-0.3,1
		c0,0.4,0.1,0.8-0.6,0.7c0,0.8,0.1,1.5,0,2.2c-0.1,0.7-0.4,0.9-1.1,0.8c0,0.2-0.1,0.4-0.1,0.6c-0.5-1-0.8-1.9-0.8-2.9
		c0-0.4-0.5-0.8-0.7-1.2c-0.1,0.1-0.2,0.2-0.3,0.3c0-0.1,0-0.1,0-0.2c-0.2,0-0.4,0-0.6-0.1c0.1,0.8,0.2,1.4,0.3,2.2
		c-1.4-1.2-2.4-2.4-3-4c-0.2-0.6-0.7-1.2-0.9-1.8c-0.4-0.9-0.7-1.8-1.2-2.6c-0.7-1.3-1.5-2.6-2.2-4c-0.5-1-0.9-2-1.4-3
		c-0.1,0-0.1,0-0.2,0c0,0.3-0.1,0.6,0,0.8c0.1,0.5,0.4,0.9,0.6,1.3c0.6,1.3,1.2,2.7,1.8,4c1,2,2.1,4,3.2,6c0.7,1.2,1.6,2.2,2.5,3.3
		c0.4,0.5,1,1,1.1,1.7c0.1,0.4-0.1,0.9,0.1,1.3c0.6,1.3,0.2,2.5-0.2,3.7c-0.3,1-0.7,1.9-0.7,3c0,1.6-0.3,3.2-0.3,4.8
		c0,1.3-0.2,2.6,0.1,3.8c0,0.1,0,0.2,0,0.3c-0.1,0.5-0.3,0.9-0.4,1.4c-0.1,0.5-0.1,1.1-0.2,1.6c-0.3,1.4-0.7,2.8-1,4.2
		c-0.2,0.9-0.1,1.8-0.2,2.7c-0.1,0.8-0.2,1.6-0.3,2.4c-0.1,0.6-0.3,1.1-0.3,1.7c0,1.3,0.1,2.7,0.1,4c0,0.9-0.1,1.8,0,2.7
		c0.1,1.8,0.3,3.6,0.4,5.4c0.1,1.2,0.2,2.5,0.4,3.7c0.2,1.2,0.5,2.3,0.6,3.5c0.3,1.8,0.4,3.6,0.7,5.4c0.3,1.7,0.7,3.4,1.2,5.1
		c0.2,0.8,0.7,1.6,1,2.5c0.5,1.6,0.9,3.3,1.4,4.9c0.5,1.8,1.1,3.5,1.7,5.3c0.5,1.3,1,2.6,1.5,3.9c0.3,0.7,0.6,1.4,0.8,2.2
		c0.2,0.7,0.2,1.4,0.3,2.2c0.1,0.5,0.2,1,0.2,1.5c0.1,1,0.1,1.9,0.3,2.9c0.1,0.9,0.4,1.9,0.6,2.8c0.1-0.3,0.2-0.5,0.3-0.7
		c0.1,0.1,0.1,0.2,0.2,0.2c0.1-0.4,0.1-0.7,0.2-1.1c-0.2,0-0.4,0-0.3,0c0.1-0.4,0.1-0.8,0.2-1.1c0-0.6,0-1.2,0.1-1.7
		c0-0.3,0-0.7,0-1.1c0-0.1-0.2-0.2-0.3-0.4c0.1,0,0.2-0.1,0.3-0.1c0,0,0,0,0,0c0.4,0.2,1.1,1.5,1,1.9c0,0.2,0,0.5,0,0.7
		c0,0-0.2,0.1-0.3,0.3c0.4,0.2,0.9,0.4,0.2,0.7c0.2,0.6,0.2,0.6-0.4,1.1c-0.2,0.1-0.2,0.4-0.3,0.6c-0.1,0.2-0.1,0.5-0.2,0.8
		c0.1,0.1,0.4,0.2,0.8,0.3c0.1,0.5,0.3,1.1,0.5,1.7c-0.1,0-0.1,0-0.2,0.1c-0.1-0.1-0.1-0.1-0.4-0.3c0.2,0.4,0.3,0.7,0.3,0.9
		c-0.1,0.3-0.3,0.5-0.4,0.7c0,0,0.2,0.1,0.3,0.2c-0.1,0.1-0.2,0.2-0.3,0.3c0.7,0.7,0,1.4,0,2.1c0.1,0.1,0.2,0.2,0.5,0.4
		c-0.3,0-0.5,0-0.6,0c0.1,0.3,0.2,0.5,0.3,0.7c-0.2,0.1-0.3,0.1-0.5,0.2c-0.1-0.7-0.1-0.7-0.4-0.7c0.1,0.4,0.3,0.7,0.5,1.2
		c-0.3,0.8-0.4,1.7,0.3,2.6c0.1,0.1,0,0.3,0,0.4c0,0.1-0.2,0.2-0.2,0.3c0.1,0.5-0.2,1.3,0.5,1.6c0.1,0,0.1,0.2,0.2,0.3
		c-0.7,0-0.5,0.5-0.4,0.8c0,0.2,0.2,0.3,0.3,0.5c0,0.2,0,0.5,0,0.8c0,0.6,0.1,1.1,0.7,1.4c0.1,0,0,0.2,0.1,0.3
		c0,0.1,0.1,0.2,0.1,0.2c0.3,0.2,0.6,0.4,0.8,0.7c0.5,0.8,0.2,1.7,0.8,2.5c0.4,0.5,0.4,1.3,0.6,1.9c0.3,0.8,0,1.7,0.3,2.5
		c0.2,0.5-0.1,1.1-0.2,1.7c0,0,0,0.1,0.1,0.1c0.1,0.4,0.2,0.8,0.3,1.2c0,0.1-0.2,0.2-0.2,0.3c0,0.2,0.1,0.4,0.2,0.7
		c-0.4,0-0.6,0.1-1,0.1c0.2,0.4,0.5,1,0.7,1.5c0.2,0,0.4-0.1,0.6-0.1c0.1,0.5,0.4,1,0.3,1.3c-0.2,0.6,0.3,1.1,0.2,1.7
		c-0.1,0.8,0.2,1.6,0.2,2.5c0,0.6-0.3,1.2-0.1,1.6c0.2,0.4-0.1,0.4-0.1,0.6c0,0.6,0,0.8-0.3,0.9c0,0.9,0,1.8,0,2.7
		c0.1,1.4,0.1,2.7,0.3,4.1c0.2,1.6,0.2,3.2,0.2,4.8c0,0.2-0.1,0.4-0.1,0.5c0,0.8,0.2,1.6,0.1,2.4c-0.1,0.6-0.1,1.2,0,1.8
		c0.1,0.7,0.3,1.4,0.3,2.1c0,1.1-0.1,2.1,0.2,3.2c0.2,0.7,0.2,1.3-0.1,2c-0.2,0.5-0.1,1.2-0.1,1.8c0,0.5,0.2,0.9,0.2,1.4
		c0,0.9-0.1,1.9-0.2,2.8c0,0.1,0,0.3-0.1,0.3c-0.4,0.3-0.3,0.6-0.2,1c0,0.3,0,0.5,0,0.8c-0.1,0.7-0.2,1.4-0.4,2.1
		c-0.1,0.5-0.4,0.9-0.4,1.4c0,1.1-0.3,2-0.8,3c-0.4,0.8-0.6,1.7-1.2,2.4c-0.9,1.1-2,2-2.9,3c-0.5,0.6-1.4,1.1-1.3,2.1
		c0,0.2-0.3,0.5-0.4,0.7c-0.2,0.4-0.5,0.7-0.7,1.1c-0.2,0.3-0.3,0.7-0.4,1c-0.2,0.4-0.5,0.7-0.4,1.3c0.1,0.7,0,1.5-0.3,2.1
		c-0.4,1-0.3,2-0.5,3c0,0.3,0.1,0.5,0.1,0.8c-0.1,0.8-0.4,1.6-0.4,2.4c0,0.4,0.3,0.9,0.6,1.2c0.1,0.2,0.6,0.1,0.9,0
		c0.3-0.1,0.4-0.4,0.7-0.7c0.3,0.1,0.6,0.3,1,0.5c0.4-0.2,0.8-0.5,1.2-0.8c0.6-0.5,0.9-0.5,1.6,0c0.3,0.2,0.7,0.4,1.1,0.5
		c1,0.1,2,0.2,3,0.3c0.6,0,1.1-0.2,1.7-0.2c0.9,0,1.5-0.4,1.9-1.1c0.1-0.1,0.2-0.1,0.3-0.1c0.7,0,1.4,0.2,2,0.1
		c0.8-0.2,1.7-0.4,2.4-0.9c0.7-0.4,0.8-1.3,1-2c0.2-0.8,0.4-1.6,0.8-2.3c0.6-0.9,0.9-1.8,0.9-2.9c0-0.5,0.2-1.1,0.4-1.6
		c0.1-0.3,0.2-0.6,0.3-1c0.1-0.4,0.2-0.8,0.2-1.1c0.2-0.7,0.3-1.3,0.5-1.9c0.1-0.4,0.3-0.8,0.4-1.3c0.2-0.1,0.5-0.2,0.7-0.4
		c0.3-0.4,0.8-0.6,0.5-1.3c-0.2-0.5-0.2-1.1,0-1.7c0.2-0.7,0.1-1.5,0.2-2.2c0.1-0.7-0.3-1.2-0.4-1.9c-0.1-0.9-0.2-1.7-0.3-2.6
		c-0.1-1-0.3-2-0.4-3.1c0-0.5,0.2-1.1,0.2-1.6c0.2-1.6,0.3-3.2,0.5-4.8c0.1-0.6,0.1-1.3,0-1.9c-0.1-0.6-0.4-1.2-0.5-1.8
		c-0.3-1.6-0.6-3.3-1-4.9c-0.3-1.3-0.5-2.6-0.4-4c0-0.4,0.2-0.7,0.2-1.1c0-1-0.2-2-0.2-3c0-0.7,0-1.3,0-2c0-0.1,0-0.3,0.1-0.3
		c0.6-0.3,0.4-0.9,0.3-1.3c-0.2-0.5-0.6-1-0.2-1.6c0,0,0.1-0.1,0-0.1c-0.4-0.3-0.2-0.8-0.3-1.1c-0.1-0.9-0.1-1.8-0.1-2.7
		c0-0.6,0-1.1,0-1.7c0-0.6,0-1.1,0-1.7c0-0.7,0.1-1.4,0.1-2c0-0.5-0.1-1-0.1-1.5c0.1-1,0.5-2.1,0.3-3.1c-0.1-0.7,0-1.4-0.1-2.1
		c-0.1-0.6-0.2-1.2-0.2-1.8c-0.1-1.3,0.2-2.7-0.1-4c-0.2-1.1-0.2-2.2-0.3-3.3c0-0.2,0-0.3,0-0.5c0.2-0.4,0.4-0.9-0.1-1.3
		c0,0,0-0.1,0-0.2c0.3-0.6-0.3-1.4,0.3-2c-0.3-0.4-0.1-0.9-0.1-1.3c0-0.5,0.1-1,0-1.5c-0.1-0.6-0.2-1.2-0.4-1.8c0-0.1,0-0.1,0-0.2
		c0.1-0.5,0.2-1,0.4-1.6c0,0-0.1,0-0.1,0c0,0.1-0.1,0.2-0.1,0.2c-0.2-0.6-0.4-1.2-0.6-1.9c-0.1-0.4-0.3-0.9-0.3-1.3
		c0-0.7,0.1-1.4,0.1-2.1c0-1-0.1-1.9-0.1-2.9c0-0.2,0.1-0.4,0.3-0.7c0-0.5-0.1-1.1,0-1.8c0.1-0.6,0.3-1.2,0.5-1.9
		c-0.1,0-0.3-0.1-0.6-0.2c0.3-0.2,0.6-0.2,0.8-0.4c0.5-0.3,0.9-0.8,1.5-1c0.6-0.3,1.3-0.3,1.9-0.7c0.4-0.3,0.9-0.4,1.2-0.7
		c0.4-0.4,0.8-0.3,1.3-0.4c0.4-0.1,0.9,0.4,1.1-0.3c0.1,0.1,0.2,0.2,0.3,0.3c0.3-0.4,0.7-0.1,1.1-0.1c0.6,0,1.2,0.1,1.6-0.6
		c0.1-0.2,0.3-0.3,0.5-0.4c0.3-0.3,0.7-0.6,1-0.8c0.3-0.3,0.7-0.6,1-0.9c0.2-0.2,0.4-0.4,0.5-0.6c0.1-0.4,0.2-0.7,0.3-1.2
		c-0.5-0.3-0.6-1.2,0-2.1c0.4,0.3,0.9,0.7,1.3,1c0-0.1,0-0.2,0-0.3c0.5-0.2,0.4,1,1.1,0.3c-0.1,0.2-0.1,0.4-0.1,0.4
		c0.5-0.1,1-0.2,1.5-0.3c-0.1,0.4-0.1,0.6-0.1,0.8c0.4,0.1,0.7,0.2,1.1,0.3c0,0-0.1,0.2-0.1,0.3c0.1,0.6,0.3,1.2,0.5,1.7
		c0.2,0.6-0.1,1.2-0.7,1.3c-0.3,0.1-0.7,0.1-1,0.1c0,0.1,0.1,0.3,0.1,0.3c-0.6,0.2-0.3,0.5-0.1,0.8c0.1,0.1,0.1,0.3,0.1,0.4
		c0.2,0.8,0.4,1.5,0.6,2.3c0.2,0.7,0.3,1.5,0.5,2.2c0.3,1.2,0.6,2.4,0.8,3.7c0.1,0.8,0.1,1.7,0.1,2.5c0,0.5-0.2,1.1-0.2,1.6
		c0,0.8,0.2,1.6,0,2.4c-0.3,1.7-0.8,3.4-1.1,5.1c-0.2,1.6-1.3,2.8-1.5,4.4c-0.1,0.7-0.5,1.4-0.8,2.1c-0.2,0.6-0.4,1.1-0.6,1.7
		c-0.2,0.6-0.5,1.1-0.8,1.6c-0.4,0.8-0.7,1.6-1.2,2.3c-0.8,1-1.8,1.8-2.8,2.8c-0.8,0.8-1.5,1.6-1.5,2.8c0,0.5-0.2,1-0.3,1.4
		c0,0.2,0.4,0.5-0.2,0.5c0.3,0.6,0.5,1.1,0.8,1.5c0.5,0.6,1.4,0.7,2.2,0.8c0.8,0.1,1.5,0,2.3,0.2c0.8,0.2,1.6,0.5,2.4,0.7
		c0.4,0.1,1.1,0.3,1.4,0.1c0.4-0.3,0.6-0.1,0.9,0.1c0.3-0.9,1.1-0.9,1.7-1c0.4-0.1,0.9,0,1.5,0c-0.2,0.1-0.2,0.2-0.4,0.3
		c0.8-0.2,1.5-0.3,2.2-0.5c0.1,0,0.1-0.3,0.2-0.4c0.4-0.4,0.8-0.7,1.2-1.1c0.1-0.1,0.1-0.2,0.1-0.3c0.1-0.2,0.2-0.4,0.3-0.7
		c0-0.1,0.2-0.1,0.2-0.2c0.1-0.4,0.2-0.7,0.3-1.1c0.1-0.4,0.3-0.8,0.4-1.2c0.2-0.5,0.2-1.1,0.5-1.6c0.6-0.9,1.3-1.8,2.1-2.7
		c0.2,0.6,0.3,1,0.4,1.4c0.1,0.4,0.4,0.8,0.5,1.2c0.2,1.5,0.2,3,0.3,4.5c0.1,1.2,0.4,2.5,0.5,3.7c0.1,1.4,0.2,2.8,0.3,4.3
		c0,0.3,0.1,0.6,0.1,0.9c-0.1,1.2-0.2,2.4-0.3,3.6c-0.1,0.8,0.2,1.5,0,2.4c-0.2,0.8-0.4,1.8-0.3,2.6c0.2,0.9-0.7,1.7-0.2,2.6
		c-0.6,1.2-0.6,2.5-0.6,3.9c0,1,0.4,1.9,0.2,3c-0.3,1.1,0.3,2.1,0.2,3.3c-0.1,0.9-0.4,1.8-0.2,2.8c0.2,0.7-0.1,1.6,0,2.4
		c0.1,0.4,0,0.8,0,1.3c-0.2,1-0.4,2-0.6,3c0,0.2,0,0.4,0,0.5c0,0.5,0.2,1.2-0.1,1.6c-0.6,0.9-1.2,1.7-1,2.8c0,0.1,0,0.3-0.1,0.5
		c-0.1,0.3-0.2,0.7-0.2,1c0,0.3,0.1,0.7,0.1,1c0,0.7,0,1.3,0.7,1.7c0.2,0.1,0.4,0.5,0.3,0.6c-0.4,0.5-0.3,1.1-0.4,1.6
		c-0.3,1.1-0.1,2.4-0.1,3.5c0,0.9,0.4,1.8-0.4,2.7c-0.2,0.2-0.2,0.8-0.1,1.1c0.1,0.8,0.3,1.6,0.4,2.4c0,0.3-0.2,0.7-0.1,1
		c0.2,0.5-0.2,1.3,0.8,1.4c0.4,0,1,0.7,1,1.1c0,0.8,0.2,1.6,0.4,2.3c0.2,0.6,0.7,0.8,1.2,0.9c0.5,0.1,1,0.1,1.5,0.2
		c0.2-0.4,0.5-0.9,0.7-1.3c0.2,0.2,0.3,0.4,0.4,0.4c0.7,0.3,1.4,0.5,1.3,1.5c0,0.2,0,0.4,0.1,0.5c0.3,0.4,0.5,0.9,1.2,1
		c0.6,0,0.8-0.3,0.9-0.7c0-0.1,0.3-0.1,0.5-0.1c0.3,0.1,0.6,0.3,0.9,0.3c0.8,0.1,1.6-0.6,2.5-0.5c0.1,0,0.3-0.1,0.6-0.1
		c1.4,0.2,2.1-0.4,2.2-1.8c0,0,0-0.1,0.1-0.1c1-0.1,1-0.1,1.3-0.4c0.5-0.6,1-1.2,1.5-1.8c0.2-0.2,0.1-0.6,0.2-0.9c0-0.2,0-0.4,0-0.6
		c0-0.7,0-1.5,0-2.2c-0.1-1-0.2-2-0.3-3c0-0.4-0.2-0.7-0.3-1.1c-0.2-0.9-0.4-1.8-0.6-2.7c-0.1-0.3-0.1-0.7-0.2-1
		c-0.1-0.5-0.3-0.9-0.4-1.4c-0.3-1.3-0.5-2.6-0.7-3.9c-0.3-1.3-0.5-2.6-0.8-3.9c-0.1-0.4,0-0.9-0.2-1.2c-0.4-0.5-0.4-1-0.4-1.5
		c0-0.6,0.1-1.2,0.1-1.8c0-0.5,0.1-0.9,0.1-1.4c0-0.4-0.1-0.7-0.1-1.1c0.1-0.9,0.4-1.8,0.5-2.7c0.1-0.6,0-1.3,0-1.9
		c0-1.1-0.1-2.1-0.1-3.2c0-0.7-0.1-1.4-0.1-2c0-1,0.1-2.1,0.1-3.1c0-0.2,0.1-0.4,0.1-0.5c-0.3-1-0.1-1.9,0-2.8
		c0.2-1.2,0-2.3-0.1-3.4c-0.1-0.8-0.2-1.6-0.3-2.5c-0.1-1.4,0-2.8-0.1-4.1c0-1.2-0.2-2.4-0.2-3.6c-0.1-1.4,0.3-2.8,0.2-4.3
		c0-0.5,0-1,0-1.4c0-0.7,0-1.4,0-2.1c0-1.1,0.3-2.2,0.5-3.3c0.1-0.6,0.2-1.3,0.2-1.9c0-0.6,0-1.2,0-1.8c0-0.6-0.1-1.1,0-1.7
		c0.2-1.7,0.3-3.4,0.2-5.1c0-1-0.1-2.1-0.1-3.1c0-0.7,0-1.4,0-2.2c0-0.8-0.1-1.6-0.1-2.4c0.1-1.8,0.4-3.6,0.1-5.5
		c-0.2-0.9-0.1-1.8-0.1-2.7c0-0.4,0.1-0.8,0.1-1.2c-0.1-0.5-0.3-1.1-0.4-1.6c-0.1-0.7-0.2-1.4-0.6-2c-0.2-0.3-0.4-0.6-0.6-1
		c-0.5-1.2-0.9-2.3-1.4-3.5c-0.1-0.1,0-0.3,0-0.6c0-0.1-0.2-0.4-0.2-0.6c0.1-1.3,0.2-2.5,0.4-3.8c0-0.3,0.2-0.7,0.2-1
		c0.1-0.9,0.3-1.9,0.4-2.8c0.2-1,0.5-1.9,0.6-2.9c0.2-1.5,0.3-3.1,0.4-4.6c0-0.4,0.3-1.1,0.7-0.9c0.5,0.2,0.9,0.2,1.4,0.1
		c0.5,0,1,0,1.4-0.1c0.4-0.1,0.7-0.3,1.1-0.5c0.4-0.5,0.7-1.2,1.3-1.6c0.7-0.5,0.7-1.4,1.5-1.9c0.5-0.4,0.7-1.2,1.1-2
		c0.1,0.3,0.1,0.5,0.2,0.6c0.2-0.1,0.3-0.1,0.3-0.1c0.2,0.4,0.4,0.7,0.7,1c0.7,0.7,1.1,1.6,1.4,2.5c0.1,0.4,0.2,0.7,0.2,1.1
		c0.1,0.6,0.2,1.2,0.3,1.8c0.2,0.8-0.3,1.8,0.6,2.4c0,0,0,0.1,0,0.1c0,0.4,0.1,0.8,0.1,1.2c0,0.3,0,0.5,0.1,0.8
		c0.2,0.6,0.3,1.2,0.5,1.8c0.3,0.7,0.6,1.4,0.9,2.1c0.2,0.6,0.4,1.3,0.6,1.9c0.3,0.8,0.8,1.6,1,2.4c0.3,1,0.1,2.2,0.5,3.2
		c0.2,0.6,0.3,1.2,0.5,1.8c0.2,0.7,0.3,1.3,0.3,2c0,0.7,0,1.3,0.2,1.9c0.3,0.8,0.3,1.7,0.4,2.6c0.1,0.9,0.3,1.7,0.1,2.6
		c-0.2,0.9-0.1,1.9-0.4,2.7c-0.4,0.9-0.1,1.9-0.4,2.8c-0.1,0.2,0,0.3,0,0.5c0,0.5,0,1,0,1.4c0,0.8-0.1,1.5,0.4,2.2
		c0.2,0.4,0.5,0.8,0.6,1.2c0.3,0.8,0.4,1.6,0.6,2.4c0,0.2-0.1,0.4,0,0.6c0.5,0.9,0.9,1.7,0.8,2.8c-0.1,0.8-0.1,1.8,0.4,2.6
		c0.3,0.5,0.4,1.2,0.6,1.9c0.1,0.4,0,0.9,0.1,1.3c0.2,0.9,0.5,1.7,0.7,2.6c0.2,1.1,0.3,2.3,0.4,3.5c0.1,0.5,0.1,0.9,0.1,1.4
		c0.1,0.5,0.1,1.1,0.2,1.6c0,0.4,0,0.9,0,1.3c-0.2,1.2-0.4,2.4-0.1,3.6c0.3,1.3,0.6,2.6,0.9,3.9c0.1,0.5,0,1.1,0.1,1.6
		c0.4,1.2,0.7,2.5,0.9,3.8c0.1,0.6,0.7,1.2,1.3,1.5c0.6,0.3,1.4,0.1,2,0.2c0.3,0.1,1-0.2,1,0.6c0.2-0.1,0.4-0.2,0.6-0.2
		c0,0.1,0,0.3,0,0.4c0.1-0.1,0.1-0.2,0.2-0.3c0.1-0.1,0.2-0.1,0.3-0.1c0.5,0.7,1,0.3,1.6,0.1c0.3-0.1,0.5-0.2,0.7-0.2
		c0.2,0.3,0.3,0.6,0.5,0.7c0.5,0.1,1.1,0.2,1.6,0.2c1.1,0,2.2,0,3.4,0c0.8,0,1.8-1.2,1.9-1.9c0.1-0.6,0.2-1.1,0.2-1.7
		c0,0,0.1-0.1,0.1-0.1c0,0.2,0.1,0.4,0.1,0.6C155.9,253.1,155.7,252.6,155.6,252z M31.7,122.9c0.3,0.3,0.5,0.7,0.8,1.1
		c-1.1,0.3-1.3-0.7-1.9-1.1C31.1,122.5,31.1,122.4,31.7,122.9z M23.4,99.9c-0.3-0.2-0.5-0.4-0.8-0.6c0.1-0.1,0.2-0.3,0.3-0.4
		c0,0,0.2,0.1,0.2,0.1c0.2,0.2,0.4,0.4,0.7,0.6C23.6,99.7,23.4,99.9,23.4,99.9z M120.4,119c0.2,0.4,1,0.2,0.8,1
		c-0.3,0-0.6,0.1-0.9,0.1C120.3,119.8,119.8,119.4,120.4,119z M121.8,119.8c0,0.3,0,0.6,0,0.9c-0.2,0-0.3,0-0.6,0c0-0.3,0-0.5,0-0.8
		C121.4,119.9,121.6,119.8,121.8,119.8z M118,117c0.1,0.2,0.2,0.3,0.2,0.4c0.3,0,0.5,0,0.8,0c-0.3,0.3-0.5,0.5-0.7,0.8
		c-0.2-0.4-0.3-0.7-0.5-1.1C117.9,117.1,117.9,117,118,117z M116.4,121.4c0,0.1,0,0.1-0.1,0.2c-0.1,0-0.1,0.1-0.2,0.1
		c-0.4-0.3-0.8-0.3-1.3-0.2c-0.1,0-0.2-0.3-0.2-0.6C115.2,121,115.8,121.2,116.4,121.4z M106.6,103.5c0.5-0.3,0.9-0.6,1.4-1
		c-0.4,0-0.6-0.1-0.8-0.1c0.1-0.1,0.2-0.2,0.3-0.2c0,0,0-0.1-0.1-0.1c-0.4,0.2-0.8,0.4-1.2,0.6c0.2-0.9,0.4-1.6,0.5-2.3
		c0.1,0,0.1,0,0.2,0c0,0.1,0,0.2,0,0.4c0,0,0.1,0,0.1,0c0.1-0.4,0.1-0.8,0.2-1.4c0.2,0.2,0.4,0.4,0.7,0.6c0-0.1,0-0.3,0-0.6
		c0.2,0,0.6-0.5,1,0.1c0,0,0.1,0,0.2,0c0.1,0,0.2,0,0.3,0c-0.1,0.1-0.1,0.2-0.2,0.4c0.4,0.2,0.6,0.3,1,0.5c0,0,0,0.1,0,0.3
		c0.2-0.2,0.3-0.2,0.4-0.4c0,0.2,0.1,0.3,0.2,0.6c0.3-0.4,0.6-0.8,0.8-1.2c0.3,0.1-0.2,0.8,0.7,0.4c-0.1,0.1-0.1,0.2-0.2,0.2
		c-0.2,0.3-0.4,0.6-0.6,0.9c0.2,0.2,0.4,0.4,0.6,0.6c0,0,0.1-0.1,0.1-0.3c0.1,0.8,0.2,1.5,0.3,2.2c0,0,0.2,0,0.3,0
		c-0.1,0.1-0.2,0.2-0.3,0.3c-0.2,0.3-0.3,0.7-0.5,1c-0.1,0.2-0.2,0.4-0.3,0.4c-0.2,0-0.3-0.2-0.7-0.3c0.4,0,0.6-0.1,0.8-0.1
		c0,0,0-0.1,0-0.1c-0.5-0.1-1.1-0.2-1.8-0.3c0.4,0,0.6-0.1,0.8-0.1c0-0.3-0.1-0.5-0.2-0.9c0,0.3-0.1,0.4-0.1,0.6
		c-0.2-0.4-0.4-0.7-0.6-1.2c0,0.4-0.1,0.8-0.1,1.2c-0.1,0-0.3-0.1-0.6-0.2c0.1,0.4,0.2,0.8,0.3,1.1c0,0-0.1,0.1-0.1,0.1
		c-0.2-0.2-0.4-0.5-0.6-0.7c-0.8,0.2-1.3,0-1.4-0.5c-0.2,0-0.5,0.1-0.7,0.2c0.7,0.7,0.7,0.7,1.1,0.6c0,0.1,0.1,0.2,0.1,0.4
		c0.1-0.1,0.1-0.2,0.2-0.2c0.2-0.1,0.3-0.1,0.5-0.2c0,0.2-0.1,0.4-0.1,0.6c-0.2,0-0.5,0-1,0c0.6,0.2,1.1,0.3,1.5,0.4
		c-0.1-0.1-0.6,0.7-0.7-0.1c-0.2,0.1-0.5,0.1-0.7,0.2c-0.3,0.1-0.5,0.3-0.7,0.4c-0.1-0.1-0.1-0.2-0.2-0.3c0.2-0.1,0.4-0.1,0.6-0.2
		c0-0.1-0.1-0.1-0.1-0.2c-0.4,0.2-0.8,0.4-1.1,0.6c0-0.1-0.1-0.1-0.1-0.2c0.2-0.1,0.3-0.2,0.5-0.3c-0.4-0.1-0.7-0.3-1-0.4
		C106.7,104.7,106.8,104.6,106.6,103.5z M112.3,121.5c-0.4-0.2-0.6-0.4-0.9-0.5c-0.1,0.1-0.2,0.2-0.3,0.3c0-0.2,0-0.5-0.1-0.9
		C111.5,120.8,112.1,120.8,112.3,121.5z M108.3,108.4c0.2,0.5,1,0.3,0.6,1.1c-0.1-0.2-0.1-0.3-0.2-0.4c0,0.1,0,0.1,0,0.2
		c-0.5-0.1-0.9-0.1-1.4-0.2c0-0.1,0-0.2,0.1-0.3c0.2,0.1,0.3,0.1,0.5,0.2c0.2,0,0.3,0.1,0.5,0.1
		C108.3,108.9,108.3,108.7,108.3,108.4z M104.9,114.4c-0.1,0-0.3,0-0.4,0.1c0,0-0.1-0.1-0.1-0.1c0.1-0.1,0.3-0.3,0.4-0.2
		c0.2,0.2,0.4,0.4,0.5,0.6c0.1,0.4-0.1,0.7-0.5,0.7c0.1-0.1,0.2-0.3,0.3-0.4c-0.3-0.1-0.9,0.5-0.9-0.4
		C104.3,114.6,104.6,114.9,104.9,114.4z M103.2,113.8c0.3,0.2,0.5,0.4,0.8,0.7c-0.2,0.1-0.4,0.2-0.6,0.4c-0.1-0.4-0.3-0.7-0.4-1
		C103.1,113.9,103.2,113.8,103.2,113.8z M91.9,71c0.3,0.1,0.7,0.1,1.2,0.2c0,0.1-0.1,0.2-0.1,0.4c-0.5-0.1-0.8-0.2-1.1-0.3
		C91.9,71.2,91.9,71.1,91.9,71z M88.4,98.7c-0.1,0-0.1,0-0.2,0c0-0.5-0.1-0.9-0.1-1.4C88.6,97.4,88.6,97.4,88.4,98.7z M86.8,86.7
		c0.2,0.6,0.4,1.2,0.6,1.8c-0.1,0-0.2,0.1-0.3,0.1c-0.2-0.6-0.4-1.2-0.6-1.8C86.6,86.8,86.7,86.7,86.8,86.7z M85.9,113.5
		c0.8-1.1,1.2-2.2,1.5-3.5c0.1-0.8,0.1-1.6,0.2-2.4c0.2-1.8,0.4-3.6,0.5-5.4c0.1-0.8,0-1.6,0-2.3c0-0.2,0.1-0.4,0.2-0.7
		c0.1,0,0.2-0.1,0.3-0.1c0.1,0.3,0.2,0.6,0.4,1c0.3,0.9,0.2,1.9,0.2,2.8c0,1-0.2,2-0.3,2.9c0,0.4,0,0.7,0,1.2c0,0-0.1,0.1-0.3,0.1
		c0.1,0.1,0.3,0.2,0.3,0.3c-0.4,0.8,0.3,1.3,0.5,1.9c0.2,0.7,0.6,1.3,0.8,2c0.1,0.4,0.2,0.8,0.3,1.2c0,0.1-0.1,0.3-0.2,0.4
		c-0.2,0.4-0.5,0.8-0.8,1.2c-0.1,0.2-0.4,0.2-0.7,0.3c0,0,0,0.1,0,0.3c-0.3-0.2-0.5-0.3-0.9-0.5c0-0.1,0-0.4,0-0.6
		c0,0-0.1-0.1-0.1-0.1c-0.1,0.2-0.2,0.3-0.4,0.5c-0.2,0-0.5,0-0.8,0c0.1-0.1,0.1-0.3,0.2-0.4c0,0-0.1-0.1-0.1-0.1
		c-0.2,0.2-0.5,0.4-0.8,0.7C85.9,113.7,85.9,113.6,85.9,113.5z M85.1,80.9c-0.3,0.1-0.4,0.2-0.6,0.3c0.1,0,0.1,0,0.2,0
		c0.2,0.7,0.4,1.4,0.6,2c0,0,0.1-0.1,0.2-0.1c0,0.3,0.1,0.7,0.1,1c-0.1,0-0.1,0-0.2,0c-0.3-1.2-1.2-2-2-2.9
		c-0.2-0.2-0.2-0.5-0.2-0.7c-0.7-0.9-1.4-1.8-2.1-2.7C82.8,78.2,83.7,79.9,85.1,80.9z M68.8,96.3c0.1-0.3,0.1-0.6,0.3-0.7
		c0.6-0.6,1-1.4,2-1.4c-0.3-0.3-0.5-0.5-0.7-0.8c0.4-0.1,0.6-0.3,1-0.4c0-0.1,0.1-0.4,0.2-0.6c-0.2,0-0.4-0.1-0.6-0.1
		c-0.1,0-0.2,0-0.2,0.1c-0.1,0-0.3,0.1-0.3,0.1c-0.1-0.1-0.1-0.2-0.1-0.4c-0.1,0-0.3,0-0.4,0c0.1-0.6,0.3-0.8,1-0.7
		c-0.1-0.6-0.8-1.4,0.1-1.7c0.4,0.8,0.7,1.5,1,2.1c0.1,0,0.2,0,0.2-0.1c0-0.2-0.1-0.3-0.1-0.5c0-0.2-0.2-0.5-0.1-0.6
		c0.1-0.1,0.4-0.1,0.7-0.2c0,0,0.1-0.2,0.1-0.5c0.2,0.4,0.4,0.7,0.7,1.1c-0.1,0.3,0.4,0.7,1.1,0.6c0.3,0,0.5-0.3,0.9,0.1
		c0.2,0.2,0.8-0.1,1.3-0.1c0,0,0.2,0.2,0.3,0.2c0.7,0.1,1.4,0,2,0.3c0.5,0.2,1,0.7,1.4,1.1c0.1,0.1-0.1,0.6-0.2,0.8
		c-0.1,0.2-0.3,0.4-0.4,0.6c-0.3-0.1-0.6-0.1-0.9-0.2c-0.3,0.6-0.5,1.1-0.7,1.7c-0.1-0.1-0.2-0.2-0.4-0.3c-0.1,0.5-0.2,0.9-0.2,1.3
		c0,0,0.1,0,0.1,0c-0.2,0.3-0.3,0.5-0.5,0.8c0,0,0.1,0.1,0.1,0.1c-0.2,0-0.4,0-0.7,0c-0.1,0.2-0.1,0.3-0.2,0.5
		c-0.1-0.1-0.2-0.1-0.4-0.2c-0.2,0.2-0.3,0.4-0.6,0.7c-0.1,0-0.4-0.1-0.7-0.2c-0.3,0.7-0.9,0-1.4,0c0.1,0.2,0.1,0.3,0.2,0.4
		c-0.6,0.3-1.2,0.7-1.9,0.3c-0.2-0.1-0.5-0.2-0.7-0.4c-0.2-0.2-0.6-0.2-1-0.4c0.1,0.2,0.1,0.3,0.2,0.4c-0.8,0.1-1-0.1-1.1-0.8
		c-0.1-0.3-0.2-0.6-0.3-0.9c-0.1-0.2,0-0.5-0.1-0.8c0,0-0.1-0.1-0.3-0.2C68.6,96.3,68.7,96.3,68.8,96.3z M52.5,136.4
		c0.3,0.6,0.5,1.2,0.8,1.8c-0.1,0-0.3,0-0.4,0c0-0.2,0-0.4,0-0.5c-0.1,0-0.1,0-0.2-0.1c-0.1,0.2-0.3,0.4-0.5,0.7c0-0.5,0-0.9,0-1.3
		c-0.1,0-0.1,0-0.2,0c0,0.2,0.1,0.4,0.1,0.6c0,0-0.1,0.1-0.1,0.1c-0.2-0.2-0.4-0.5-0.6-0.7C51.8,136.7,52.2,136.6,52.5,136.4z
		 M48.1,166.9c0-0.2,0-0.3-0.1-0.4c-0.1-0.1-0.2-0.2-0.5-0.4c0.4-0.1,0.7-0.1,1-0.2c0,0.2,0,0.4,0,0.8c0,0,0.1,0.1,0.3,0.2
		C48.5,166.9,48.3,166.9,48.1,166.9z M48.5,165.6c-0.2,0-0.5-0.2-0.7-0.4c-0.2-0.3-0.3-0.6,0.1-0.9c0.1,0,0.1-0.1,0.1-0.2
		c0.2,0.2,0.5,0.4,0.8,0.6c0,0-0.1,0.1-0.1,0.2C48.8,165.2,49,165.6,48.5,165.6z M52.3,159.8c0.2,0,0.4,0,0.7,0
		c-0.1,0.3-0.2,0.6-0.3,0.9C52.4,160.4,52.1,160.3,52.3,159.8z M53.2,187.2c-0.1-0.1-0.2-0.2-0.2-0.2c-0.2-0.4-0.3-0.7-0.4-1
		c0.1,0,0.1,0,0.2-0.1c0,0.2,0,0.4,0.1,0.7c0.1-0.3,0.2-0.6,0.3-0.8c0.2,0.2,0.5,0.4,0.7,0.6c0,0.2,0,0.4-0.1,0.5c0,0.2,0,0.4,0,0.7
		C53.5,187.4,53.4,187.3,53.2,187.2z M58.2,201.1c-0.1,0.3-0.1,0.6-0.2,0.7c-0.2,0.1-0.3,0.2-0.5,0.3c-0.2-0.4-0.5-0.8-0.6-1.3
		c-0.1-0.3-0.1-0.7-0.2-1c-0.2-1-0.4-2.1-0.7-3.1c-0.3-1-0.7-1.9-1-2.9c-0.2-0.6-0.1-1.3-0.5-1.7c-0.2-0.2-0.3-0.5-0.3-0.7
		c-0.2-0.7-0.5-1.3-0.6-2c-0.1-0.4,0-0.8-0.1-1.1c0,0,0.2-0.2,0.4-0.3c0.2-0.1,0.4-0.1,0.5-0.2c0.1,0.1,0.3,0.3,0.5,0.5
		c-0.2,0-0.3,0.1-0.5,0.2c-0.1,0-0.1,0.2-0.2,0.3c0.1,0,0.2-0.1,0.4-0.1c0,0.2,0,0.4-0.1,0.6c-0.1,0-0.2-0.1-0.2-0.1
		c0,0.1,0,0.4,0,0.4c0.3,0.2,0.6,0.3,0.9,0.4c0.2,0.7,0.3,1.4,0.5,2.2c0.1-0.1,0.3-0.2,0.5-0.4c0.2,0.5,0.3,1,0.5,1.6
		c-0.1,0-0.2,0.1-0.4,0.2c0-0.2,0-0.4,0-0.5c0,0-0.1,0-0.1,0c-0.2,0.4-0.4,0.8-0.6,1.2c0.1,0,0.3,0,0.5,0c0,0-0.1,0.1-0.1,0.1
		c0.3,0.3,0.5,0.7,0.8,1c0,0-0.1,0.2-0.2,0.4c0.2-0.1,0.3-0.1,0.6-0.3c-0.4,0.6-0.5,1.3,0,1.6c0.3,0.2,0.4,0.3,0.5,0.6
		c0,0.1,0,0.3,0,0.5c0,0,0.2,0,0.3,0.1c0.3,0.3-0.6,0.9,0.3,1c-0.3,0.4-0.6,0.8,0,1.3C58.5,200.4,58.2,200.9,58.2,201.1z
		 M58.9,220.4c-0.1,0-0.1,0-0.2,0c0-0.2,0-0.4,0-0.7c0-0.2,0-0.5,0-0.7c0.1,0,0.1,0,0.2,0C58.9,219.5,58.9,220,58.9,220.4z
		 M63.2,152.7c-0.1,0-0.1,0-0.2,0c0.1,0.1,0.2,0.3,0.3,0.4c-0.1,0.1-0.1,0.1-0.2,0.2c-0.2-0.2-0.3-0.4-0.5-0.5c0,0,0.1-0.1,0.1-0.1
		c-0.2,0-0.4,0.1-0.5,0.1c-0.2-0.7-0.5-1.4-0.6-2.1c0.2-0.4,0.3-0.7,0.6-1.3c0.2,0.2,0.4,0.4,0.6,0.6c0,0-0.1,0.1-0.1,0.1
		c0.2-0.1,0.4-0.1,0.6-0.2c0,0,0,0.1,0.1,0.1c-0.1,0.1-0.2,0.2-0.3,0.2c0.1,0.2,0.2,0.5,0.3,0.7c0,0,0.1-0.1,0.3-0.2
		C63.4,151.4,63.3,152.1,63.2,152.7z M73,161.5c0-0.1,0-0.2,0-0.4c0.3,0,0.5,0,0.8,0c0.1,0.2,0.1,0.4,0.2,0.6
		C73.6,161.6,73.3,161.5,73,161.5z M74.3,160.1c-0.4,0-0.9-0.2-1.2-0.1c-0.3,0.1-0.3,0.7-0.6,1c0-0.2,0-0.5,0-0.7
		c-0.3,0-0.7-0.5-1,0.4c-0.1-0.4-0.1-0.5-0.2-0.8c-0.1,0-0.3,0.1-0.3,0.2c-0.5-0.7-0.9-1.3-1.4-1.9c-0.1,0.1,0,0,0.1-0.1
		c-0.1-0.1-0.1-0.1-0.1-0.1c-0.6,0.2-0.7-0.5-1-0.7c-0.3-0.2-0.6-0.3-1-0.5c-0.1-0.1-0.2-0.1-0.4-0.2c0.2-0.3-0.4-0.8,0.2-1
		c0.1,0,0.4,0.2,0.5,0.3c0.3,0.2,0.5,0.5,0.8,0.7c0.1-0.2,0.3-0.5,0.6-0.6c0.7-0.5,1,0.3,1.4,0.5c0.1,0,0.2,0.1,0.3,0.2
		c-0.1,0-0.1,0.1-0.2,0.1c0,0,0,0.1,0,0.1c0.3,0,0.6,0,0.9,0c0.3,0.1,0.6,0.2,0.9,0.5c-0.5-0.1-1-0.2-1.5-0.3c0,0.1,0,0.1,0,0.2
		c0.1,0,0.3,0.1,0.4,0.1c0,0.2,0,0.5,0,0.7c0,0,0.1,0,0.1,0c0-0.1,0.1-0.3,0.1-0.5c0.5,0.4,1,0.8,1.4,1.1c0-0.1,0-0.3,0-0.4
		c0.2,0,0.3,0.1,0.5,0.1c0-0.3-0.1-0.6-0.1-0.8c0,0,0-0.1,0.1-0.1c0.2,0.4,0.4,1,0.7,1.2C74.9,159.2,74,159.6,74.3,160.1z
		 M80.8,149.9c0.1,0.3,0.2,0.6,0.3,0.9c-0.1,0.1-0.2,0.1-0.2,0.1c-1.4-0.4-1.4-0.4-1.5-2.3c0-0.7,0.1-1.5-0.5-2
		c-0.2-0.2-0.5-0.3-0.7-0.2c-1.1,0.3-2.3,0.6-3.4,0.8c-1.2,0.2-2.4,0.5-3.6,0.6c-0.5,0-1-0.2-1.5-0.3c-1.3-0.2-2.6-0.5-4-0.6
		c-0.2,0-0.5,0.3-0.8,0.5c-0.4,0.3-0.9,0.6-1.3,0.9c-0.2-0.1-0.4-0.3-0.7-0.5c-0.1,0.6-0.4,0.6-0.7,0.2c-0.2-0.4-0.6-0.4-0.9-0.4
		c-0.3,0-0.6-0.2-0.9-0.3c0.2,0.3,0.3,0.5,0.5,0.8c-0.2,0-0.4,0.1-0.4,0.1c0.2,0.5,0.4,1.1,0.6,1.6c-0.1,0-0.1,0.1-0.2,0.1
		c-0.3-0.4-0.6-0.9-1-1.4c-0.1,0.1-0.3,0.4-0.5,0.7c-0.6-0.6-0.7-2.1-2.2-1.6c0.1-0.1,0.2-0.1,0.3-0.2c-0.1-0.2-0.3-0.3-0.5-0.6
		c-0.1,0.3-0.1,0.6-0.1,0.8c0,0-0.1,0-0.1,0c-0.1-0.3-0.2-0.6-0.2-0.8c-0.3,0-0.5-0.1-0.8-0.1c-0.1,0,0-0.3-0.1-0.4
		c-0.2,0-0.3,0.1-0.6,0.2c0-0.4-0.1-0.7-0.1-1.1c0,0-0.1,0-0.1,0c0,0.2-0.1,0.5-0.1,0.7c0,0-0.1,0-0.1,0c-0.1-0.2-0.1-0.4-0.2-0.7
		c0,0.4-0.1,0.6-0.1,0.9c0.1,0,0.3,0.1,0.4,0.1c0.1,0.2-0.9,0.3,0,0.7c0,0,0,0.1,0,0.1c-0.4,0.5,0.1,1,0,1.4c-0.1,0.3,0,0.6-0.1,0.9
		c-0.2-0.5-0.4-1-1.2-0.7c0.1-0.1,0.2-0.2,0.3-0.3c-0.5-0.3-1.5,0.8-1.8-0.5c-0.1,0.3-0.2,0.5-0.3,0.8c-0.1-0.2-0.2-0.3-0.3-0.5
		c0,0.2,0,0.4-0.1,0.6c0.3,0,0.6,0,0.9,0.1c0,0.1,0,0.1,0,0.2c-0.3,0-0.5,0.1-0.8,0.1c0,0,0,0.1,0,0.1c0.3,0,0.6,0,1,0
		c-0.1,0.3-0.2,0.5-0.3,0.9c0,0.1,0.2,0.2,0.2,0.3c-0.3,0.4-0.6,0.7-0.8,1c0.1,0,0.1,0,0.2,0c0,0.3,0,0.6,0,0.9c0,0.2,0,0.4,0.1,0.6
		c0,0.1,0.1,0.2,0,0.2c-0.4,0.3-0.2,0.5,0,0.8c0.2,0.2,0.1,0.6,0.2,0.9c-0.1,0-0.3,0.1-0.3,0.2c0.1,0.4,0.1,0.8,0.2,1.3
		c0,0,0.2,0,0.4,0.1c-0.2,0.3-0.3,0.6-0.6,0.9c0.3,0.1,0.5,0.1,0.7,0.1c0,0.3,0,0.6,0,1c-0.1,0-0.4,0.1-0.6,0.1
		c0,0.1,0.1,0.2,0.1,0.3c0.1,0,0.2-0.1,0.3-0.1c0,0.2,0.1,0.4,0.1,0.6c0,0,0.1,0,0.1,0c0.1-0.1,0.2-0.3,0.3-0.5
		c0.1,0.2,0.2,0.4,0.2,0.6c-0.2,0.1-0.4,0.3-0.6,0.4c0,0,0,0,0,0c-0.3,0-0.7,0.5-0.8-0.3c-0.2,0.9-0.9,0.3-1.4,0.6
		c0.3,0,0.5,0,0.8,0c-0.1,0.2-0.1,0.3-0.2,0.5c-0.2-0.1-0.5-0.2-0.7-0.2c-0.2,0.6-0.3,1.2-0.5,1.9c-0.1,0-0.3-0.2-0.5-0.3
		c0,0,0,0-0.1,0.1c0.2,0.2,0.3,0.4,0.5,0.6c0.1,0.2,0.1,0.5,0.1,0.5c-0.3,0.2-0.2-0.1-0.2-0.3c0,0-0.3-0.1-0.3-0.1
		c-0.3,0.2-0.6,0.3-0.8,0.5c0.3,0,0.8,0.1,1.3,0.2c0,0.3,0,0.6-0.1,0.6c-0.3,0.1-0.6,0.1-0.9,0.1c-0.2,0-0.3,0-0.5-0.1c0,0,0,0,0,0
		c-0.6-0.2-0.5-0.7-0.6-1.1c-0.1-0.7-0.3-1.4-0.4-2.1c-0.1,0-0.1,0-0.2,0c0.1-0.1,0.2-0.2,0.3-0.3c-0.4-0.4-0.2-0.9-0.2-1.4
		c0-0.3-0.1-0.6-0.1-0.9c0.1-1,0.3-2,0.4-3c0-0.5-0.1-1.1-0.1-1.6c0-0.8,0-1.6,0-2.3c0-0.6,0-1.2,0.3-1.9c0.2-0.4-0.1-1-0.2-1.6
		c0.2,0.1,0.3,0.1,0.3,0.1c0.1-0.4,0.4-0.7,0.4-1c-0.1-0.7,0.3-0.6,0.8-0.6c-0.2-0.1-0.4-0.3-0.6-0.4c0.2-0.1,0.3-0.1,0.3-0.1
		c0.1-0.6,0.2-1.1,0.4-1.7c0.1-0.4,0-0.9,0.3-1.2c0,0,0-0.2,0-0.2c0.4-0.3,0.4-0.3,0-0.7c0.1-0.1,0.2-0.2,0.4-0.5
		c0.1,0.4,0.2,0.8,0.3,1.1c0.2,0,0.5,0,0.7,0c-0.1,0.4-0.3,0.9,0.5,0.6c0.1,0,0.3,0.1,0.4,0.2c0-0.4,0-0.7,0-1.1
		c0.3,0,0.5,0.1,0.9,0.1c-0.2,0.1-0.3,0.1-0.4,0.2c0.1,0,0.3,0.1,0.4,0.1c0-0.2,0.1-0.3,0.1-0.4c0.2,0,0.3,0,0.5,0
		c-0.1-0.1-0.2-0.3-0.3-0.4c-0.1-0.2-0.1-0.4-0.1-0.6c-0.1,0-0.1,0-0.2,0c0,0.1,0.1,0.3,0.1,0.5c-0.1-0.1-0.2-0.1-0.2-0.1
		c0.1-0.5,0.1-1,0.2-1.5c0-0.1,0.3-0.2,0.6-0.4c0-0.2,0.1-0.6,0.5-1c0.3-0.4,0.9-0.2,1.1-0.7c0.1,0.1,0.2,0.3,0.3,0.4
		c0.1-0.1,0.1-0.1,0.2-0.2c-0.5-0.6-1-1.2-1.5-1.9c0.1-0.1,0.1-0.2,0.2-0.2c0.3,0.1,0.7,0.2,1.1,0.4c0.1-0.1,0.3-0.2,0.5-0.3
		c0.3,0.1,0.6,0.3,1.1,0.5c0.1-0.5,0.2-0.9,0.2-1.4c0.4,0,0.6,0,1.1,0.3c0,0,0.2,0,0.2,0c0.3-0.8,0.9,0.2,1.2-0.1
		c0.1-0.6,0.1-1.2,0.2-1.7c0.1,0.1,0.2,0.1,0.3,0.2c0-0.1,0.1-0.1,0.1-0.2c-0.3-0.1-0.6-0.3-0.9-0.4c-0.1,0.2-0.1,0.3-0.2,0.5
		c-0.7-0.5-1.6-0.4-2.5-1.1c-0.6,0.1-1.4,0.2-2.4,0.4c0.2-0.2,0.3-0.4,0.5-0.6c-0.2,0-0.3,0.1-0.5,0.1c-0.1-0.2-0.2-0.4-0.3-0.6
		c0.5-0.5,0.5-0.6-0.4-0.9c0.2-0.3,0.3-0.6,0.5-1c0.1-0.1,0.3-0.3,0.4-0.5c0.2-0.5-0.3-0.6-0.5-0.9c-0.1-0.2-0.4-0.3-0.7-0.5
		c0.1-0.2,0.2-0.4,0.2-0.6c0-0.2,0-0.5-0.1-0.7c0-0.2-0.1-0.4-0.2-0.6c0.3,0,0.3-0.7,0.7-0.3c0,0,0.1,0,0.4,0
		c-0.3-0.5-0.6-0.9-0.9-1.3c-0.1-0.1,0-0.3,0-0.4c0.1-0.1,0.3-0.1,0.5-0.2c0,0.1-0.1,0.3-0.1,0.4c0,0.1,0.1,0.2,0.2,0.3
		c0.1-0.1,0.2-0.2,0.2-0.3c-0.1-0.5-0.2-1-0.2-1.2c0.2-0.5,0.4-0.8,0.5-1.2c0.1-0.3,0.5-1.1,0.7-1.3c0.4-0.4,0.8-0.8,1.2-1.2
		c0.1,0,0.2,0.1,0.4,0.2c0.1-0.4,0.4-0.6,0.9-0.5c0.2,0.1,0.4-0.2,0.6-0.2c0.5,0,1-0.1,1.5,0.5c0.5,0.6,1.7,0.3,2-0.4
		c0.2-0.5,0.6-0.8,1.2-1c0.4-0.1,0.7-0.4,1.1-0.6c0.2-0.1,0.4-0.2,0.6-0.2c0.8,0.1,1.6,0,2.3,0.6c0.5,0.4,1.2,0.7,1.8,1
		c0.6,0.4,1,1,1.2,1.7c0,0.2-0.1,0.5-0.1,0.7c1.1,0.8,0.5,4.1-0.1,5.9c-0.3-0.3-0.5-0.5-0.8-0.8c-0.6,0.5-1.2,1-1.8,1.5
		c-0.1,0-0.2-0.1-0.3-0.2c0,0.2,0,0.4,0,0.7c0.8,0,1.5-0.1,2.3-0.1c-0.2,0.8-0.3,1.7-1,2.4c-0.1,0.1-0.1,0.4,0.1,0.6
		c-0.1,0.2-0.2,0.3-0.2,0.5c0.1,0,0.3-0.1,0.4-0.1c0.1,0,0.3,0,0.4,0c0-0.1,0.1-0.1,0.1-0.2c0.4,0.4,0.8,0.9,1.2,1.3
		c0.2,0.2,0.3,0.5,0.5,0.7c0.3,0.3,0.8,0.5,1.3,0.8c-0.2,0.1-0.3,0.2-0.5,0.2c-0.1,0-0.2-0.1-0.3,0c-0.9,0.5-1.9,0.2-2.7,0.6
		c-1.2,0.6-2.6,0.4-3.7,1.1c-0.1,0.1-0.4,0-0.6,0c-0.2,0-0.4,0.1-0.7,0.1c-0.1,0-0.2,0.1-0.3,0.1c-0.5-0.1-0.5-0.1-0.5,0.5
		c-0.2-0.2-0.4-0.3-0.6-0.4c0,0,0,0-0.1,0c0.3,0.5,0.6,0.9,0.9,1.3c-0.3,0.1-0.5,0.3-0.9,0.4c0.6,0.5,1.1,0.9,1.7,1.4
		c0.3,0.7,0.6,1.6,1,2.4c-0.1,0-0.2,0.1-0.3,0.1c0.2,0.2,0.3,0.5,0.6,0.7c0.6,0.5,1.4,0.9,2,1.4c0.4,0.4,0.8,0.1,1.2,0.1
		c0.2,0,0.4,0.1,0.6,0.1c0.1,0,0.3,0,0.4,0c0.3-0.2,0.4-0.5,0.9-0.4c0.1,0,0.5-0.5,0.6-0.9c0.1-0.5,0.2-0.6,0.5-0.4
		c0.1-0.3,0.2-0.5,0.2-0.8c0-0.3,0.1-0.6,0-0.9c-0.1-0.5,0.2-0.7,0.6-0.9c0.2-0.1,0.4-0.3,0.6-0.5c0.6-0.5,0.3-1.1,0.2-1.7
		c0-0.1-0.1-0.2-0.2-0.3c-0.5-0.4-0.4-1,0.1-1.2c0.4-0.2,0.9-0.5,1.3-0.6c0.5-0.1,0.9,0.2,1.1,0.6c0.2,0.4,0.3,0.9,0.5,1.3
		c0.4,1-0.4,1.5-0.8,2.2c-0.1,0.1-0.1,0.3-0.1,0.4c0,0,0.1,0.1,0.1,0.1c-0.1,0.1-0.3,0.1-0.4,0.2c0,0.1,0,0.1-0.1,0.2
		c0.5,0.2,0.9,0.4,1.4,0.6c0,0-0.1,0.1,0,0.1c0.4,0.4,0.7,0.9,1.1,1.3c0.2-0.9,0.8-1.1,1.7-0.5c0-0.2,0-0.3-0.1-0.5
		c0.3,0.2,0.5,0.4,0.6,0.5c0.1-0.4,0.2-0.7,0.3-1.1c0.5,0.2,0.6,0.5,0.5,1c-0.2,1.2-0.2,2.3,0.5,3.4c0.4,0.7,1,1.4,0.9,2.3
		c0,0.3,0.4,0.7,0.7,1.1C81.3,150,81,149.9,80.8,149.9z M96.5,122.6c-0.2-0.2-0.3-0.4-0.4-0.6c-0.1,0-0.1,0-0.2,0c0,0.7,0,1.4-0.2,2
		c-0.1,0.8-0.4,1.6-0.6,2.4c0,0.2,0,0.4,0.1,0.5c0.4,0.4,0.4,1,0.7,1.4c0.3,0.5,0,0.8-0.4,0.9c0.1,0.6,0.2,1.2,0.4,1.8
		c0.2,0.8-0.3,1.4-0.6,2c-0.4,0.7-0.7,1.5-1.1,2.2c-0.3,0.6-0.7,1.3-1.1,1.7c-0.8,0.8-1.5,0.8-2.7-0.1c-0.7,0.8-1.4,1.6-2.2,2.4
		c-0.8,0.8-1.6,1.5-2.4,2.2c-0.5,0.5-1,0.9-1.5,1.4c-0.4,0.4-0.8,0.8-1.2,1.3c-0.1,0.2-0.2,0.4-0.3,0.7c-0.9,0-1,0.3-0.5,1.1
		c0.1,0.1,0.2,0.2,0.1,0.3c-0.2,1,0.1,2-0.4,3c-0.7-0.1-0.8-0.2-0.7-1.3c0-0.3,0.1-0.7,0.2-1c0.2-0.6,0-1.1-0.5-1.4
		c-0.4-0.2-0.4-0.5-0.4-0.8c0-1.4-0.1-2.9,0.5-4.3c0,0,0,0,0-0.1c0.1-0.9,0.2-1,1.2-0.6c-0.1-0.3-0.2-0.5-0.2-0.6
		c0-0.2,0.1-0.4,0.2-0.6c0.2,0.1,0.3,0.1,0.3,0.1c0.2-0.2,0.4-0.4,0.7-0.6c0.8-0.5,1.6-1.1,2.4-1.5c1-0.5,1.3-1.4,2-2.2
		c0.2-0.2,0.5-0.6,0.8-0.4c0.4-0.8,0.8-1.7,1.1-2.5c0.6-1.4,1.1-2.9,1.6-4.3c0.1-0.2,0.2-0.6,0.4-0.6c0.6-0.1,0.4-0.5,0.5-0.9
		c0.1-0.5,0.4-1,0.6-1.5c0-0.1,0.1-0.2,0.1-0.3c0.2-1,0.3-2.1,0.7-3.1c0.4-1.1-0.3-2.1-0.2-3.2c0.1-0.8,0.1-1.5,0.1-2.3
		c0.7,0.1,2,2.9,1.8,3.7C96,119.6,96.7,121.8,96.5,122.6z M94,114.5c0.6-0.9,1.1-0.2,1.5-0.1c0,0.1,0,0.1,0,0.2
		C95.1,114.6,94.6,114.5,94,114.5z M95.5,113.9c0.2-0.2,0.4-0.2,1.3,0.2C96.3,114.7,96.1,113.7,95.5,113.9z M96.1,89.6
		c0.2,0,0.3-0.1,0.4-0.1c0.4,0.8,0.8,1.5,1.3,2.3c-0.2-0.1-0.5-0.2-0.7-0.2c-0.1,0-0.2,0.1-0.4,0.1c-0.3-0.4-0.6-0.7-0.9-1.2
		C96.6,90.4,96.1,89.9,96.1,89.6z M97.9,94c0-0.3,0-0.5-0.1-0.8c0,0-0.1,0-0.1,0c-0.1,0.2-0.1,0.5-0.2,0.8c-0.3-0.2-0.6-0.3-1-0.5
		c0.1-0.1,0.2-0.2,0.2-0.3c-0.2-0.5-0.5-1-0.7-1.4c0,0,0.1,0,0.1-0.1c0.1,0.2,0.3,0.4,0.4,0.6c0-0.2,0.1-0.4,0.1-0.6
		c0.1,0.1,0.2,0.1,0.2,0.1c-0.2,0.6,0.1,0.9,0.5,1.1c0.3-0.3,0-1,0.8-1c-0.1-0.3-0.1-0.6-0.2-1.1c0,0,0.1-0.2,0.1-0.2
		c-0.5-0.4-0.9-0.8-1.3-1.2c0.6-0.8,0.1-1.7-0.8-1.8c-0.1-0.2-0.1-0.3-0.1-0.4c-0.4-0.5-0.9-0.9-1-1.6c-0.1-0.5-0.4-1-0.5-1.5
		c-0.1-0.3-0.1-0.7-0.2-1.1c0.2,0,0.3,0.1,0.4,0.1c-0.8-1.7-1.5-3.4-2.3-5.2c0,0,0.1,0,0.3-0.1c-0.1-0.2-0.3-0.3-0.5-0.5
		c0.1-0.1,0.2-0.2,0.4-0.4c-0.3,0.1-0.4,0.1-0.4,0.1c-0.2-0.6-0.5-1.1-0.7-1.7c-0.1-0.3-0.2-0.7-0.3-1c0-0.1,0.1-0.2,0.2-0.3
		c0.1,0.1,0.2,0.1,0.3,0.2c0.1,0.1,0.2,0.1,0.3,0.2c0-0.2,0-0.4,0-0.6c0-0.1,0-0.3,0.1-0.4c0.5,0.2,0.8,0.4,1.1,0.6
		c-0.1-0.8-0.4-1.5-0.8-1.9c0.3-0.2,0.5-0.4,0.8-0.6c-0.1,0.3-0.2,0.7-0.2,1c0.2,0,0.4-0.1,0.8-0.1c-0.2,0.3-0.3,0.4-0.5,0.7
		c0.2,0.4,0.5,0.8,0.8,1.3c0.6-0.6,1.2-0.8,1.9-0.6c0.4,0.1,0.6,0.4,1,0.7c0.1,0.1,0.3,0.1,0.5,0.1c0,0,0,0.2,0,0.3
		c0.5-0.1,1-0.3,1.5-0.4c0,0.6,0.5,0.9,1,0.9c0.6,0.1,0.7,0.2,0.3,0.7c-0.1,0.1,0,0.4,0.1,0.5c0.3,0.4,0.4,0.9,0.4,1.4
		c0,0.2,0.1,0.4,0.1,0.7c-0.3-0.2-0.6-0.4-1-0.6c0,0-0.1,0.1-0.1,0.1c0.2,0.3,0.5,0.7,0.7,1c-0.1,0-0.1,0.1-0.2,0.1
		c-0.1-0.1-0.3-0.3-0.4-0.4c0,0-0.1,0-0.1,0.1c0.2,0.5,0.5,1,0.7,1.6c-0.1,0.1-0.3,0.3-0.6,0.5c0.4,0.1,0.6,0.1,0.8,0.1
		c0.1,0.4,0.2,0.8,0.3,1.1c-0.1,0-0.1,0-0.2,0.1c-0.1-0.2-0.3-0.4-0.4-0.5c0,0-0.1,0-0.1,0c0.1,0.2,0.2,0.5,0.2,0.7
		c0,0.3-0.2,0.5-0.2,0.7c0.3,0.6,0.6,1.3,0.9,2c-0.3-0.2-0.5-0.3-0.7-0.5c0,0-0.1,0.1-0.1,0.1c0.4,0.6,0.7,1.2,1.1,1.9
		c0,0-0.1,0-0.1,0c0.2,0.1,0.4,0.2,0.6,0.3c0,0.1-0.1,0.1-0.1,0.2c-0.1-0.1-0.2-0.1-0.5-0.3c0.3,0.5,0.5,0.9,0.8,1.3
		c-0.2-0.1-0.4-0.2-0.7-0.3c0.3,0.5,0.5,0.9,0.8,1.4c-0.5-0.2-0.7-0.3-1.1-0.5c0,0.1,0.1,0.2,0.1,0.4c0.3,0.6,0.7,1.2,0.6,2
		c0,0.1,0.1,0.3,0.1,0.4c-0.1,0.2-0.1,0.5-0.2,0.7c-0.1-0.2-0.3-0.4-0.5-0.6c-0.3,0.8-0.6,1.6-1,2.4c-0.2,0-0.3-0.1-0.7-0.2
		c0.2,0.3,0.4,0.5,0.6,0.8c-0.5,0.1-0.6-0.2-0.7-0.6c-0.1,0.2-0.2,0.4-0.2,0.5c-0.3-0.3-0.7-0.6-1-0.8C97.9,94,97.9,94,97.9,94z
		 M102.1,94.7c-0.3,0.2-0.5,0.4-0.7,0.6c-0.3-0.3-0.1-0.7,0.2-1.1C101.7,94.4,101.9,94.6,102.1,94.7z M99,99.9
		c0.1,0.1,0.1,0.3,0.2,0.4c-0.1,0-0.1,0.1-0.2,0.1c-0.2-0.4-0.5-0.9-0.8-1.4c0.5,0.3,0.9,0.5,1.3,0.8C99.3,99.8,99.1,99.9,99,99.9z
		 M99.3,100.5c0.1-0.1,0.2-0.3,0.3-0.3c0.3,0.4,0.7,0.8,1,1.1c0,0-0.1,0.1-0.1,0.1C100.1,101.1,99.8,100.8,99.3,100.5z M101.7,111.4
		c-0.1,0.3-0.2,0.4-0.2,0.5c0,0-0.1,0-0.1,0c-0.3-0.6-0.7,0.1-1-0.2c-0.1-0.2-0.2-0.4-0.2-0.6C100.4,111.8,101,111.4,101.7,111.4z
		 M101.5,115c-0.5-0.5-0.9-1-1.4-1.5c0.4-0.1,0.7-0.1,1.1-0.2c0,0.1,0,0.1,0,0.2c-0.2,0.1-0.3,0.1-0.6,0.2c0.4,0.1,0.6,0.2,0.9,0.3
		c-0.1,0.1-0.2,0.2-0.4,0.3c0.2,0.1,0.4,0.2,0.6,0.4C101.7,114.8,101.6,114.9,101.5,115z M103.6,118.7c-0.1,0-0.2,0-0.4-0.1
		c0,0,0-0.1-0.1-0.1c-0.3-0.1-0.6-0.2-0.9-0.3c0-0.1,0-0.1,0-0.2c0.6-0.3,1.1,0.2,1.6,0.4C103.8,118.5,103.7,118.6,103.6,118.7z
		 M106.7,302.9c-0.2,0.1-0.5,0.4-0.6,0.3c-0.2-0.1-0.4-0.4-0.4-0.6c-0.2-0.5-0.3-1-0.4-1.5c0,0,0-0.1,0-0.2c0.3-0.7,0.6-1.3,0.9-2
		c0,0,0.1-0.1,0.2-0.1c0.7,0.6,0.4,1.4,0.3,2.1c-0.1,0.5-0.2,1.1-0.3,1.6C106.3,302.7,106.5,302.8,106.7,302.9z M117.5,154.3
		c0-0.1,0-0.3,0.1-0.4c0,0,0,0-0.1,0c-0.1-0.5-0.3-1.1-0.2-1.6c0.1-0.5,0.1-1-0.1-1.6c-0.1-0.4,0-0.9,0-1.5c0,0,0.2-0.1,0.5-0.2
		c-0.4-0.1-0.6-0.1-0.8-0.2c0.2-0.2,0.3-0.4,0.5-0.7c-0.4-0.3-0.1-0.6,0.3-0.9c-0.3-0.1-0.5-0.3-0.9-0.4c0.5-0.2,1.1,0.3,1.4-0.5
		c-0.3,0.1-0.5,0.1-0.7,0.1c0,0,0-0.1-0.1-0.1c0.2-0.1,0.4-0.2,0.5-0.4c0-0.2-0.1-0.4-0.1-0.7c-0.3-0.1-0.6-0.1-1-0.2
		c0-0.1,0-0.1,0-0.2c0.2,0,0.3,0,0.4,0c-0.1-0.4-0.3-0.7-0.2-1.1c0.1-0.5-0.2-0.7-0.3-1.1c0.1-0.1,0.2-0.2,0.5-0.4
		c-0.3-0.1-0.5-0.1-0.7-0.2c0-0.2,0-0.4,0-0.7c0.1,0,0.3,0,0.6-0.1c-0.3-0.2-0.4-0.3-0.6-0.4c0.1-0.1,0.2-0.2,0.5-0.4
		c-1,0.4-0.7-0.3-0.8-0.6c0.2,0,0.4,0,0.5-0.1c-0.1-0.1-0.2-0.2-0.3-0.4c0.3,0,0.5,0,0.8,0c0-0.2-0.1-0.5-0.1-0.7c0.1,0,0.2,0,0.4,0
		c-0.1-0.1-0.1-0.2-0.2-0.2c-0.3,0-0.6-0.1-1-0.1c-0.1-0.2-0.4-0.6-0.6-1c0.2-0.1,0.4-0.1,0.4-0.2c-0.3-0.3-0.5-0.6-0.8-0.9
		c0.1,0,0.1-0.1,0.2-0.1c0.2,0.1,0.3,0.2,0.6,0.4c0-0.3,0-0.5,0-0.8c-0.2,0-0.4,0-0.6,0c0.1-0.3,0.3-0.5,0.4-0.8
		c0,0,0.2,0.2,0.3,0.2c0.1,0,0.3-0.2,0.2-0.2c-0.2-0.4-0.5-0.8-0.8-1c-0.4-0.4-0.6-1-0.3-1.8c-0.3-0.1-0.5-0.2-0.8-0.3
		c0.1-0.2,0.1-0.4,0.2-0.6c0.3,0,0.6,0.1,0.9,0.1c0,0,0-0.1,0-0.1c-0.3-0.1-0.5-0.1-0.7-0.2c-0.3-0.6-0.4-1.1-0.7-1.6
		c-0.1-0.1-0.4,0-0.7-0.1c-0.3-0.4-0.7-0.8-1.1-1.2c0-0.1,0.1-0.2,0.2-0.4c-0.3,0-0.4,0-0.6-0.1c0,0,0-0.1-0.1-0.1
		c0.2-0.1,0.3-0.2,0.6-0.3c0-0.1,0.1-0.3,0.2-0.7c-0.6,0-1.1,0-1.7,0c0,0,0-0.1,0-0.1c0.6-0.3,0.5-0.5,0-0.9
		c-0.2-0.2-0.3-0.5-0.4-0.7c0,0,0-0.1,0.1-0.1c0.2,0.1,0.4,0.1,0.6,0.2c-0.1-0.2-0.2-0.4-0.3-0.5c-0.3-0.6-0.6-1.1-1-1.7
		c-0.1-0.2-0.4-0.3-0.5-0.5c0-0.1,0.1-0.1,0.1-0.2c-0.3,0.1-0.6,0.2-1,0.4c0-0.3,0.1-0.8-0.5-0.8c0,0-0.1-0.2-0.1-0.5
		c-0.6-0.2-1.1-1.2-2.1-1c0.3-0.8-0.1-1.5-0.9-1.8c-0.2-0.1-0.4-0.4-0.6-0.6c-0.3-0.3-0.7-0.6-1-0.9c-0.3-0.3-0.5-0.5-0.8-0.9
		c0.2,0,0.4,0,0.5,0c0-0.1,0-0.1,0.1-0.2c-0.2-0.1-0.4-0.2-0.6-0.2c-0.2,0-0.4,0.1-0.7,0.1c0.3-0.7,0.8-0.9,1.6-0.5
		c0-0.1,0-0.3,0-0.4c0-0.1-0.1-0.2-0.1-0.2c0.1-0.1,0.2-0.1,0.2-0.1c0.2,0.1,0.4,0.3,0.6,0.4c0.1,0,0.2,0,0.3,0
		c0.1,0.3,0.3,0.7,0.5,1.1c0.2-0.4,0.2-0.5,0.3-0.6c0,0,0.3,0.1,0.3,0.1c0,0.2,0,0.4-0.1,0.7c0.4,0.1,0.8,0.2,1.3,0.4
		c-0.3,0.1-0.5,0.1-0.7,0.1c0,0,0,0.1,0,0.1c0.4,0,0.7,0,1.2-0.1c-0.2,0.2-0.4,0.3-0.7,0.5c0.2,0.3,0.5,0.6,0.7,0.8
		c0.2-0.2,0.5-0.3,0.7-0.5c0,0,0.1,0.1,0.1,0.1c0.1-0.2,0.1-0.3,0.2-0.5c0,0,0.1,0,0.1,0c0,0.3,0,0.6,0,1c-0.2,0-0.4,0.1-0.7,0.2
		c0.2,0.3,0.6,0.4,0.9,0c0.1-0.1,0.2-0.2,0.3-0.3c0.1,0.1,0.2,0.3,0.2,0.4c-0.1,0.2-0.3,0.3-0.4,0.4c-0.1,0.1-0.3,0-0.6,0
		c0.5,0.2,0.8,0.4,1.1,0.5c0-0.1-0.1-0.1-0.1-0.2c0.2-0.2,0.5-0.4,0.7-0.7c0,0,0.1,0.1,0.1,0.1c-0.2,0.3-0.3,0.6-0.5,0.9
		c0,0,0.1,0.1,0.1,0.1c0.2-0.2,0.3-0.4,0.6-0.7c0,0.4,0.1,0.7,0.1,1.2c0,0,0.2,0,0.3,0c0.1,0.2,0.3,0.4,0.4,0.7c0,0,0,0,0,0
		c0.1,0.2,0.1,0.5,0.2,0.8c-0.3-0.1-0.7-0.1-1-0.2c0,0.1,0,0.1-0.1,0.2c0.2,0.1,0.7-0.1,0.6,0.4c0.2,0,0.3-0.1,0.5-0.1
		c0.1,0,0.3,0,0.4,0.1c0,0.1,0,0.2,0,0.3c0.2-0.1,0.4-0.2,0.6-0.3c0.5-0.1,0.8,0.6,0.4,1c-0.5,0.4-0.2,0.6,0,0.9
		c0.2,0.2,0.4,0.4,0.7,0.6c0.3-0.2,1-0.2,0.8-0.9c0.3,0.1,0.5,0.1,0.8,0.1c0,0,0,0.1,0,0.1c-0.2,0-0.4,0.1-0.6,0.1c0,0,0,0.1,0,0.1
		c0.5,0,0.9,0.1,1.4,0.1c-0.1,0.2-0.2,0.5-0.3,0.7c-0.6-0.6-1.3-0.4-2,0c0.6,0.1,1.2,0.2,1.7,0.2c-0.1,0.6-0.2,1.1-0.2,1.3
		c0.3,0.4,0.4,0.7,0.6,1c0.2-0.1,0.5-0.2,1-0.3c-0.1,0.3-0.2,0.6-0.3,0.9c0.2,0,0.3,0,0.5-0.1c-0.1,0.2-0.2,0.4-0.3,0.7
		c0.2,0,0.4-0.1,0.6-0.1c0,0.3,0.1,0.7,0.1,1c0.1,0,0.2,0,0.2,0c0-0.2-0.1-0.4,0-0.5c0-0.1,0.1-0.3,0.2-0.4c0.1,0.1,0.2,0.2,0.4,0.3
		c0-0.1,0.2-0.3,0.1-0.3c-0.2-0.2-0.4-0.3-0.7-0.6c0.1-0.1,0.3-0.4,0.5-0.6c-0.2-0.1-0.4-0.3-0.5-0.3c0.2-0.4,0.5-0.9,0.8-1.4
		c-0.3-0.1-0.5-0.1-0.6-0.2c0.3-0.2,0.5-0.4,0.8-0.6c-0.7-0.7-0.7-1.9-1.8-2.3c0-0.2,0-0.6,0-1c0.5,0.6,0.8,0.2,1.1-0.2
		c0.5,0,0.9,0.1,1.4,0.1c0.5,0,0.8,0.2,0.9,0.7c0.2,0.2,0.4,0.4,0.6,0.6c0.2,0.1,0.3,0.3,0.5,0.4c0.7,0.4,0.7,0.6,0,1.2
		c0.4,0.1,0.7,0.2,0.9,0.3c0.1,0.4,0.1,0.8,0.2,1.2c0.1,0,0,0-0.2,0c0.1,0.3,0.1,0.7,0.6,0.3c-0.1,0.2-0.2,0.4-0.2,0.6
		c0,0.1,0,0.3,0,0.4c-0.1,0-0.1,0-0.2,0.1c0.2,0.2,0.5,0.3,0.7,0.5c-0.3,0.2-0.6,0.3-0.9,0.5c0.3,0.1,0.4,0.2,0.5,0.3
		c0,0.5,0,0.9,0,1.4c0,0.3,0,0.7,0,1c0,0.3,0.2,0.6,0.1,0.9c-0.1,1-0.2,2,0.2,2.9c0,0.1-0.1,0.3-0.2,0.5c0.6,0.4-0.3,0.9-0.2,1.5
		c0.1,0.1,0.3,0.2,0.5,0.3c-0.2,0.1-0.3,0.2-0.5,0.3c0.1,0,0.2,0.1,0.3,0.1c-0.1,0.1-0.2,0.2-0.4,0.3c0.1,0.1,0.3,0.2,0.3,0.3
		c-0.2,0.3-0.3,0.7-0.4,0.9c0.2,0.3,0.4,0.6,0.4,0.9c0,0.1-0.2,0.3-0.4,0.5c0.2,0.4,0.7,0.9,0,1.5c0.1,0,0.3,0.1,0.6,0.2
		c-0.3,0.2-0.6,0.4-0.9,0.6c0.2,0,0.3,0.1,0.4,0.1c0,0.6-0.1,1.2-0.1,2c-0.2-0.3-0.4-0.5-0.6-0.7c0.2,0.8,0.4,1.6,0.6,2.6
		c-0.5-0.1-0.9-0.2-1.4-0.4c0.3,0.4,0.6,0.7,0.2,1.1c0.2,0.1,0.4,0.2,0.7,0.4c-0.3,0-0.6,0.1-0.9,0.1c0.2,0.5,1.1-0.2,1.1,0.7
		c-0.2-0.1-0.4-0.2-0.5-0.3c-0.3,0.4-0.5,0.9-0.8,1.3c0,0-0.1,0-0.2-0.1c-0.1-0.1-0.2-0.2-0.3-0.3c0,0.1-0.1,0.2-0.1,0.2
		c0.1,0.2,0.2,0.3,0.4,0.4c0.2,0.1,0.4,0.2,0.6,0.3c-0.4,0.1-0.9,0.1-1.1,0.3c-0.3,0.3,0.2,1.1,1,1.3c-0.5,0.3-0.9,0.4-1.4,0.7
		c0.3,0.1,0.5,0.1,0.8,0.2c-0.4,0.4-1.3,0.2-1.6,1.1c0,0-0.1,0-0.3,0.1c0.1,0.2,0.3,0.3,0.4,0.5c-0.3,0.1-0.6,0.1-0.8,0.2
		C117.8,154.3,117.6,154.3,117.5,154.3z M129.4,171.9c-0.1,0-0.2-0.1-0.2-0.1c0,0.2,0,0.3,0,0.5c0,0-0.1,0-0.1,0
		c0-0.3-0.1-0.6-0.1-0.8c-0.5-0.3-0.9-0.5-1.4-0.8c0-0.3-0.1-0.7-0.1-1c0,0-0.1,0-0.1,0c0,0.2-0.1,0.3-0.1,0.3
		c-0.3-1.1-0.7-2.3-1.1-3.6c-0.1,0-0.3,0-0.7-0.1c0.3-0.1,0.4-0.1,0.5-0.2c-0.3-0.3-0.5-0.6-0.8-0.8c0-0.1,0.1-0.1,0.1-0.2
		c0.2,0,0.3,0.1,0.5,0.1c-0.1-0.2-0.3-0.4-0.4-0.7c-0.2,0.1-0.3,0.3-0.4,0.4c-0.1-0.3-0.2-0.6-0.4-0.8c-0.2-0.2-0.4-0.3-0.7-0.4
		c-0.2-0.5-0.3-1.1-0.5-1.7c0,0-0.2-0.2-0.4-0.3c0,0,0,0,0,0c0,0,0,0.1,0,0.1c-0.3-0.5-0.6-1.1-1-1.7c-0.3,0-0.7-0.1-1-0.1
		c0.1,0.7,0.2,1.3,0.4,2c0.1-0.2,0.1-0.3,0.2-0.4c0.1-0.1,0.2-0.1,0.3-0.1c0,0.1,0.1,0.2,0.1,0.3c0,0.7-0.4,1.5,0.3,2.1
		c0.1,0.1,0.1,0.6,0,0.8c-0.3,0.7-0.7,1.3-1,2c-0.1,0.4-0.1,0.8-0.1,1.2c0,0.5-0.1,1-0.1,1.5c0,0.4,0.1,0.8,0.1,1.2
		c-0.1-0.1-0.1-0.1-0.2-0.2c-0.3,0.5,0.2,1.3-0.7,1.6c0.1,0.1,0.2,0.3,0.3,0.5c0,0,0,0.1-0.1,0.1c-0.4-0.2-0.7-0.4-1.3-0.7
		c0.1,0.4,0.2,0.6,0.2,0.8c0,0,0,0.1-0.1,0.1c-0.1-0.1-0.3-0.2-0.4-0.4c-0.1-0.2-0.2-0.5-0.4-0.8c0,0,0.1-0.1,0.2-0.4
		c0.1,0.2,0.1,0.3,0.2,0.6c0.2-0.5,0.3-0.8,0.4-1.1c-0.1,0-0.1,0-0.2-0.1c-0.2,0.1-0.3,0.3-0.6,0.5c0-0.7,0-1.1,0.1-1.6
		c0,0-0.1,0-0.1,0c-0.1,0.2-0.1,0.4-0.2,0.7c-0.2-1.2-0.4-2.1-0.4-3.1c-0.1-1.2,0-2.5,0-3.7c0-0.2-0.1-0.5,0-0.7
		c0.2-0.8,0.4-1.6,0.7-2.4c0-0.1,0.1-0.3,0.1-0.4c0.2-0.4,0.2-0.9,0.9-1c0.3-0.1,0.5-0.8,0.8-1.2c-0.3-0.6,0.1-1.1,0.3-1.6
		c0.2-0.4,0.4-0.9,0.6-1.3c0.1-0.3,0.2-0.7,0.2-1.1c0-0.1,0-0.3,0.1-0.5c0.2,0,0.6,0,1,0.1c0.1,0,0.2,0.2,0.3,0.3
		c0.4,0.6,0.9,1.1,1.2,1.7c0.4,0.8,0.6,1.7,0.9,2.5c0.2,0.5,0.5,0.9,0.8,1.4c0.5,0.9,0.9,1.8,1.4,2.6c0.2,0.5,0.6,0.8,0.9,1.3
		c0.1,0.2,0.2,0.5,0.2,0.8c0,0.4-0.1,0.6,0.4,0.7c0.1,0,0.1,0.2,0.2,0.2c-0.1,0-0.2,0.1-0.3,0.1c-0.1,0-0.2,0-0.3,0
		c0.6,0.3,0.7,0.7,0.5,1.4c-0.1,0.4,0,0.8,0.4,1c-0.5,1.1-0.2,2.1,0.5,3c0.1,0.1,0.1,0.2,0.1,0.3c0.1,0.3,0.1,0.5,0.2,0.8
		C129.5,171.7,129.4,171.8,129.4,171.9z M131.4,181.3c-0.8-0.3-0.6-1.1-0.9-1.7c0.5-0.2,1-0.4,1.2,0.3c-0.1,0.1-0.3,0.2-0.5,0.3
		c0.3,0.1,0.5,0.2,0.8,0.3C131.8,180.8,131.6,181.1,131.4,181.3z"/>
	<path fill="#FFFFFF" d="M91.8,74.5C91.8,74.5,91.8,74.5,91.8,74.5C91.8,74.5,91.8,74.5,91.8,74.5L91.8,74.5z"/>
	<path fill="#FFFFFF" d="M122.9,161.7C122.9,161.7,122.9,161.7,122.9,161.7C122.9,161.7,122.9,161.6,122.9,161.7z"/>
	<path fill="#FFFFFF" d="M45.5,103.4c-0.3,0.2-0.5,0.3-0.7,0.5c0.1,0.4-0.1,0.9,0.6,1c0.4,0.1,0.3,0.9,0.7,0.7
		c0.2,0.2,0.5,0.5,0.5,0.5c0.6-0.4,0.7,0.2,0.9,0.5c0.2,0.3,0.3,0.7,0.8,0.5c0.2,0,0.4,0.1,0.5,0.2c-0.1-0.4-0.2-0.8-0.3-1.2
		c0.1,0,0.2,0,0.2-0.1c0.1,0.2,0.1,0.4,0.2,0.6c0.1,0,0.3-0.1,0.4-0.1c0-0.4,0-0.9-0.2-1.2c-0.2-0.2-0.6-0.3-1-0.4
		c0-0.1,0.1-0.3,0.1-0.3c-0.6-0.3-1.1-0.5-1.7-0.8c0.2,0.3,0.3,0.4,0.4,0.6c0,0-0.1,0.1-0.1,0.1C46.5,104.1,46,103.7,45.5,103.4z"/>
	<path fill="#FFFFFF" d="M51.3,105.9c-0.2,0.2-0.3,0.4-0.5,0.7c0.2-0.1,0.5-0.1,0.8-0.2c-0.1,0.3-0.2,0.6-0.3,0.9
		c0.4,0,0.8,0.1,1.3,0.1c0-0.1,0.1-0.4,0.3-0.7c-0.3,0-0.5-0.1-0.7-0.1c0-0.3,0-0.5,0-0.6c0.3,0.2,0.6,0.5,0.9,0.7
		c-0.1-0.5-0.2-0.9-0.4-1.3c-0.2-0.4-0.3-0.9-1-0.6c0.5,0.4,0.2,1,0.3,1.6C51.7,106.1,51.5,106,51.3,105.9z"/>
	<path fill="#FFFFFF" d="M41.6,91.2c0,0.1,0,0.3-0.1,0.5c-0.1,0-0.2-0.1-0.2-0.1c0,0-0.1,0.1-0.1,0.1c0.5,0.8,1,1.2,1.4,1
		c-0.2-0.1-0.4-0.2-0.6-0.4c0-0.1,0.1-0.1,0.1-0.2c0.3,0.2,0.6,0.3,1,0.5c-0.1-0.3-0.2-0.5-0.3-0.8c0.3,0.2,0.5,0.3,0.6,0.4
		c-0.1-0.4-0.3-0.9-0.4-1.3C42.7,91,42.2,91.1,41.6,91.2z"/>
	<path fill="#FFFFFF" d="M31,101.3c0,0.1,0,0.2,0,0.3c-0.2,0.1-0.3,0.1-0.4,0.2c-0.5,0.5,0,1-0.1,1.6C31.8,102.8,31.1,102,31,101.3z
		"/>
	<path fill="#FFFFFF" d="M31,101.3c0-0.2,0-0.3,0-0.5C30.9,101,30.9,101.2,31,101.3z"/>
	<path fill="#FFFFFF" d="M36.1,123.7c-0.2-0.1-0.3-0.1-0.6-0.1c0.2-0.1,0.4-0.1,0.6-0.2c-0.2-0.3-0.4-0.5-0.6-0.7
		c-0.1,0.1-0.1,0.1-0.2,0.2c0.1,0.1,0.2,0.2,0.3,0.3c-0.3,0.1-0.5,0.2-0.9,0.4c0.2,0.1,0.4,0.2,0.4,0.2c0,0.6,0,0.6,0.5,0.4
		c0.1,0,0.2,0,0.3,0c0.1,0,0.2-0.1,0.3-0.1C36.2,123.8,36.1,123.7,36.1,123.7z"/>
	<path fill="#FFFFFF" d="M61.3,234.2c-0.1,0-0.1,0-0.2-0.1c-0.1,0.2-0.2,0.5-0.3,0.7c-0.3,0.6,0.1,1.1,0.8,1
		c-0.2-0.1-0.4-0.3-0.5-0.4c0.1,0,0.1,0,0.2,0C61.3,235,61.3,234.6,61.3,234.2z"/>
	<path fill="#FFFFFF" d="M43.4,102.7c0.1,0.2,0.4,0.2,0.7,0.2c0-0.1,0.1-0.2,0.1-0.2c-0.2-0.1-0.4-0.3-0.5-0.4
		c0.1,0,0.3-0.1,0.5-0.1c-0.2-0.2-0.4-0.4-0.6-0.7c0,0.2,0,0.6,0,0.6C43.1,102.2,43.3,102.6,43.4,102.7z"/>
	<path fill="#FFFFFF" d="M65.1,123.7c0.5,0.1,0.9,0.2,1.6,0.3c-0.1-0.3-0.1-0.5-0.2-0.6c-0.3-0.5-1-0.7-1.5-0.4
		c-0.2,0.1-0.4,0.1-0.6,0c-0.7-0.2-0.8-0.1-1,0.4c0.3,0.2,0.6,0.4,0.9,0.6C64.8,124.3,65,124.3,65.1,123.7z"/>
	<path fill="#FFFFFF" d="M58.8,138.2c-0.3,0-0.6-0.1-0.8-0.2c-0.3-0.1-0.5-0.3-0.8-0.5c-0.1,0.2-0.2,0.4-0.3,0.5
		c0.1,0.2,0.2,0.4,0.3,0.6c-0.4,0-0.6,0-0.9,0.1c0.4,0.3,0.6,0.5,0.9,0.7c0.1-0.1,0.3-0.2,0.3-0.3c0-0.5,0.2-0.4,0.5-0.2
		c0.4,0.2,0.8,0.4,1.3,0.5C59.6,138.6,59.4,138.3,58.8,138.2z"/>
	<path fill="#FFFFFF" d="M60.6,133.3c-0.4-0.1-1-0.8-1.5,0c0.3,0.1,0.5,0.1,0.7,0.2c-0.3,0.4,0.2,0.6,0.3,0.9
		c0.1,0.3,0.3,0.6,0.6,0.4c0-0.3-0.1-0.6-0.1-0.8c0,0,0.1,0,0.1,0C60.8,133.8,60.7,133.6,60.6,133.3z"/>
	<path fill="#FFFFFF" d="M109.4,120.5c0,0.2,0,0.4,0,0.6c-0.4,0-0.8-0.1-1.1-0.1c0.2,0.3,0.9,0.1,0.5,0.7c0.4,0,0.8,0.1,1.2,0.1
		C109.8,120.6,109.8,120.6,109.4,120.5z"/>
	<path fill="#FFFFFF" d="M119.6,123.9c-0.1-0.1-0.2-0.1-0.4-0.2c0.5-0.1,1-0.3,0.5-0.8c-0.3,0.3-0.5,0.6-0.8,0.9
		c0.3,0.1,0.5,0.1,0.7,0.2C119.6,124,119.6,124,119.6,123.9z"/>
	<path fill="#FFFFFF" d="M93.6,126.6c-0.1-0.1-0.4,0.1-0.5,0.3c-0.5,1-1.1,2-1.5,3.1c-0.3,0.7-0.8,1.3-0.5,2c0.3,0,0.5,0.1,0.6,0.1
		c0.5-0.9,0.9-1.9,1.4-2.8c0.3-0.6,0.6-1.1,0.9-1.7C94.1,127.2,93.9,126.9,93.6,126.6z"/>
	<path fill="#FFFFFF" d="M91.8,74.5C91.8,74.5,91.8,74.5,91.8,74.5C91.8,74.5,91.8,74.5,91.8,74.5C91.8,74.5,91.8,74.5,91.8,74.5z"
		/>
	<path fill="#FFFFFF" d="M92,75.7c0.1,0,0.3-0.2,0.3-0.2c-0.1-0.3-0.3-0.6-0.4-1c-0.1,0.2-0.2,0.4-0.3,0.5
		C91.7,75.2,91.8,75.4,92,75.7z"/>
	<path fill="#FFFFFF" d="M72.8,96.8c0.7-0.4,1.4,0.1,2-0.2c0.2-0.1,0.4-0.1,0.6-0.2c-0.1-0.1-0.3-0.2-0.4-0.4
		c-0.1-0.1-0.2-0.2-0.3-0.3c-0.7,0.2-1.5-0.1-2-0.8c-0.2-0.3-0.5-0.5-0.8-0.8c-0.1,0.5,0,0.7-0.1,0.9C71.5,95.7,72.3,97.1,72.8,96.8
		z"/>
	<path fill="#FFFFFF" d="M76,93.3c-0.4-0.4-0.8-0.7-1.1-1.1c-0.1,0.1-0.1,0.1-0.2,0.2C75,92.8,75,93.5,76,93.3z"/>
	<path fill="#FFFFFF" d="M124.7,47.6c-0.1,0-0.3,0-0.4-0.1c0-2.7,0-5.4,0-8.2c-3.1-0.1-4.7,1.7-6.5,3.5c-0.1-0.5-0.2-1-0.2-1.6
		c0-1.5,0-3-0.1-4.6c0-0.7-0.5-1.5-1.3-1.2c-0.5,0.2-0.9,1-1,1.5c-0.1,1.3,0,2.7,0.1,4.1c0.1,1.7,0.2,3.4,0.5,5.1
		c0.1,0.4,0.5,1,0.9,1.1c0.3,0.1,0.9-0.3,1.2-0.6c1.3-1.6,2.6-3.3,3.8-5c0.3,1.6,0.4,3.1,0.5,4.6c0.1,1.2,0.1,2.3,0.4,3.4
		c0.1,0.4,0.8,1,1.1,1c0.7-0.1,1.4-0.5,1.9-1c1.2-1.2,2.4-2.5,3.5-3.9c1.1-1.4,2.1-2.9,3.1-4.3c-1.3-1-1.7-0.9-2.6,0.1
		c-0.5,0.5-0.9,1-1.5,1.5C126.6,44.4,124.9,45.4,124.7,47.6z"/>
	<path fill="#FFFFFF" d="M132.5,23.8c0.7,0.4,1.1,0.8,0.9,1.6c-0.6,2.7-1,5.4-1.8,8c-0.3,1.1,0,1.4,0.9,1.8c1.5-1.7,2-3.8,2.4-5.9
		c0.2-1,0.3-2,0.5-3c0.1-0.9,0.8-1.1,1.5-1.1c1,0,2.1,0,3.2,0c0.3,2.5,1,5,3.3,6.9c-0.1,0.2-0.2,0.6-0.4,0.9c-0.5,1.1-1,2.1-1.5,3.2
		c-0.3,0.7,0,1.2,0.7,1.4c0.2,0,0.3,0.1,0.5,0.2c0.7,0.7,1.4,0.5,1.7-0.5c0.3-1.3,0.4-2.8,0.9-4.1c0.2-0.7,0.9-1.3,1.5-1.7
		c1.3-0.8,2.8-1.5,4.3-2.3c-0.9-1.2-1.7-1.4-2.7-0.9c-1.1,0.5-2,1.2-3.1,1.7c-0.6,0.3-1.3,0.4-1.5-0.4c-0.2-1.2-0.8-2.1-1.3-3.2
		c-0.6-1.4-2-2.4-3.4-2.5c-0.7,0-1.4-0.3-2.1-0.5c-1.5-0.5-2.9-1.1-4.3-1.6c-0.8-0.3-1.7-0.5-2.6-0.7c-0.2,0-0.4,0.2-0.6,0.2
		c0.1,0.2,0.1,0.5,0.3,0.6C130.6,22.7,131.5,23.3,132.5,23.8z"/>
	<path fill="#FFFFFF" d="M117.4,30c0.8-1.6,1.4-3,2.2-4.5c0.2-0.4,0.8-0.8,1.1-0.8c0.4,0.1,1,0.5,1.1,0.9c0.3,1.1,0.3,2.2,0.7,3.3
		c0.3,1,0.9,1.9,1.5,2.8c0.1,0.1,0.9-0.2,1.4-0.4c-0.2-1,0.5-2.1-0.8-2.7c-0.1,0,0-0.4,0-0.6c0-1,0-1.9,0-3.1c1.1-0.3,2.1-1,2.4-2.4
		c0.3-1.2-0.6-3.8-1.8-4c-1.3-0.2-2.5-0.4-3.8-0.3c-0.8,0.1-2.1,0.6-2.3,1.2c-0.8,1.9-1.3,4-1.8,6c-0.4,1.4-0.8,2.8-1.2,4.2
		C116.5,29.8,116.9,29.9,117.4,30z M120.8,21.4c0.2-0.8,0.5-1.5,0.9-2.6c0.9,0.5,1.8,0.8,2.4,1.4c0.4,0.5,0.8,1.5,0.6,2
		c-0.3,0.6-1.1,1.3-1.8,1.5C120.7,24.2,120.3,23.6,120.8,21.4z"/>
	<path fill="#FFFFFF" d="M134.2,59c-0.1,1.2-0.2,2.4-0.2,3.7c-0.1,1.1,0.1,2.2-0.2,3.2c-0.4,1.2-1.1,2.3-1.7,3.4
		c-0.5,0.8-1.1,1.5-1.6,2.2c-1.1-1.1,0-3.5-2.6-3.7c-0.1,1.9-0.4,3.7-0.2,5.5c0.1,1.8,1.9,2.7,3.6,2.1c1.5-0.6,3.1-1.2,4.6-1.9
		c0.5-0.2,1.4-0.3,1.1-1.2c-0.3-0.9-1-0.8-1.7-0.7c-0.4,0.1-0.7,0.3-1.1,0.5c-0.5,0.2-1,0.4-1.5,0.6c-0.1-0.1-0.1-0.2-0.2-0.2
		c0.2-0.4,0.4-0.7,0.6-1.1c1.5-2.9,3-5.7,2.5-9.2c-0.1-0.5,0-1.1,0.1-1.5C136.1,59.5,135.6,59.1,134.2,59z"/>
	<path fill="#FFFFFF" d="M104.1,45.2c1.5-0.1,3.1-0.2,4.5-0.9c2.9-1.3,3.9-3.7,3.3-6.8c-0.2-0.8-0.6-1.7-1.2-2.3
		c-0.6-0.6-1.4-1-2.2-1.5c-0.6-0.4-1.2-0.8-1.9-1.3c-0.5,0.5-1,0.8-1.3,1.2c-0.2,0.3-0.3,0.7-0.4,1.1c-1.1,3-2.8,6-2,9.4
		C103.1,44.5,103.8,45.3,104.1,45.2z M106.5,37.5c0.3-0.6,0.7-1.1,1.1-1.7c0.6-0.9,1.1-0.9,1.8-0.1c0.9,1.2,1,3.9,0.1,5.2
		c-1.6,2.3-1.6,2.3-4.6,2.7C104.3,41.2,105.5,39.4,106.5,37.5z"/>
	<path fill="#FFFFFF" d="M140.9,44.9c0.7,0.5,1.4,1,2.3,1.6c0.1-0.7,0.1-1.1,0.2-1.6c-0.9-0.5-1.7-0.9-2.5-1.4
		c-3.1-1.7-5.7-1.1-7.9,1.7c-0.4,0.5-0.9,1.1-1.1,1.7c-1.1,3.1-0.4,5.1,2.2,7c0.1,0,0.1,0.1,0.2,0.2c1.6,1,3.3,1.8,5,0.1
		c0.3-0.3,0.7-0.7,1.1-0.9c2-1.6,2.1-1.7,0.4-3.5c-0.9-0.9-1.9-1.7-3.3-1.9c0.3,0.5,0.6,1,1.1,1.4c0.4,0.4,1,0.7,1.5,1
		c-0.7,0.6-1.1,0.9-1.4,1.2c-0.6,0.5-1.1,1.1-1.7,1.6c-0.8,0.7-1.6,0.2-2.3-0.3c-0.7-0.4-1.4-0.8-1.4-1.9c0.1-2.6,1.7-4.3,3.4-6
		C137.6,44,139.9,44.1,140.9,44.9z"/>
	<path fill="#FFFFFF" d="M107.9,26.4c0.3-0.8,0.5-1.6,0.8-2.4c0.4-1,1-1.6,2.2-1.7c1.5-0.2,2.9-0.6,4.3-1.1c1.4-0.5,2-1.8,1.6-3.4
		c-0.2-1.2-1.3-1.7-2.3-1.9c-2.3-0.5-4.2,0.3-5.7,2c-0.1,0.1-0.2,0.4-0.2,0.6c-0.6,2.8-1.3,5.5-2,8.5
		C107.1,27.4,107.6,27.2,107.9,26.4z M111.8,17.5c0.5-1,2-0.7,2.8-0.1c0.1,0.1,0.2,0.2,0.2,0.4c0.1,1.5-2.1,3.8-4,3.8
		c-0.1-0.1-0.5-0.5-0.5-0.7C110.8,19.8,111.3,18.6,111.8,17.5z"/>
</g>
</svg>
